<svg width="128" height="40" viewBox="0 0 128 40" fill="none" xmlns="http://www.w3.org/2000/svg">
<g clip-path="url(#clip0_675_7257)">
<path d="M13.8 18.6004V7.90039C9.2 7.90039 5.5 12.5004 4.9 18.4004V7.90039C2.2 7.90039 0 13.3004 0 19.8004C0 26.3004 2.2 31.7004 5 31.7004V21.2004C5.5 27.1004 9.3 31.7004 13.9 31.7004V21.0004C14.5 27.0004 19.6 31.7004 25.7 31.7004V7.90039C19.5 7.90039 14.5 12.6004 13.9 18.6004H13.8Z" fill="white"/>
<path d="M53.6 12.6004C52.7 11.7004 51.7 11.0004 50.6 10.6004C49.5 10.2004 48.2 9.90039 46.9 9.90039C45.6 9.90039 44.3 10.2004 43.2 10.6004C42.1 11.0004 41.1 11.8004 40.2 12.6004C39.3 13.5004 38.7 14.5004 38.2 15.6004C37.7 16.7004 37.5 18.0004 37.5 19.3004C37.5 20.6004 37.8 21.9004 38.2 23.0004C38.7 24.2004 39.4 25.2004 40.2 26.1004C41 27.0004 42.1 27.7004 43.2 28.2004C44.3 28.7004 45.6 28.9004 46.9 28.9004C48.2 28.9004 49.4 28.6004 50.6 28.2004C51.8 27.8004 52.7 27.0004 53.6 26.2004C54.5 25.3004 55.1 24.3004 55.6 23.2004C56.1 22.0004 56.3 20.8004 56.3 19.5004C56.3 18.2004 56 16.9004 55.6 15.8004C55.2 14.7004 54.4 13.6004 53.6 12.7004V12.6004ZM52.4 22.9004C51.9 23.9004 51.1 24.7004 50.2 25.3004C49.3 25.9004 48.2 26.2004 46.9 26.2004C46 26.2004 45.1 26.1004 44.4 25.7004C43.6 25.4004 43 24.9004 42.4 24.3004C41.8 23.7004 41.4 23.0004 41.1 22.2004C40.8 21.4004 40.6 20.8004 40.6 19.5004C40.6 18.2004 40.9 17.0004 41.4 16.0004C41.9 15.0004 42.7 14.2004 43.6 13.7004C44.5 13.2004 45.9 12.8004 46.9 12.8004C47.9 12.8004 48.7 13.0004 49.5 13.3004C50.3 13.6004 50.9 14.1004 51.5 14.7004C52.1 15.3004 52.5 16.0004 52.8 16.8004C53.1 17.6004 53.3 18.2004 53.3 19.5004C53.3 20.8004 53 22.0004 52.5 23.0004L52.4 22.9004Z" fill="white"/>
<path d="M68.2984 16.5992C67.3984 15.9992 66.0984 15.6992 65.1984 15.6992C64.2984 15.6992 63.3984 15.8992 62.5984 16.2992C62.0984 16.5992 61.6984 16.8992 61.2984 17.2992V15.8992H58.3984V33.9992H61.2984V27.2992C61.6984 27.6992 62.0984 27.9992 62.5984 28.2992C63.2984 28.6992 64.1984 28.8992 65.1984 28.8992C66.2984 28.8992 67.3984 28.6992 68.2984 28.0992C69.1984 27.4992 69.8984 26.6992 70.4984 25.6992C70.9984 24.6992 71.2984 23.5992 71.2984 22.2992C71.2984 20.9992 70.9984 19.8992 70.4984 18.8992C69.9984 17.8992 69.2984 17.0992 68.2984 16.4992V16.5992ZM67.9984 24.3992C67.6984 24.9992 67.2984 25.3992 66.6984 25.7992C66.1984 26.0992 65.4984 26.2992 64.7984 26.2992C64.0984 26.2992 63.4984 26.1992 62.8984 25.7992C62.2984 25.4992 61.8984 24.9992 61.5984 24.3992C61.2984 23.7992 61.0984 23.1992 61.0984 22.3992C61.0984 21.5992 61.1984 20.9992 61.5984 20.3992C61.8984 19.7992 62.2984 19.3992 62.8984 18.9992C63.3984 18.6992 64.0984 18.4992 64.7984 18.4992C65.4984 18.4992 66.0984 18.5992 66.6984 18.9992C67.1984 19.2992 67.6984 19.7992 67.9984 20.3992C68.2984 20.9992 68.4984 21.5992 68.4984 22.3992C68.4984 23.1992 68.3984 23.7992 67.9984 24.3992Z" fill="white"/>
<path d="M77.8008 10.6992H74.9008V15.9992H71.8008V18.6992H74.9008V28.7992H77.8008V18.6992H80.8008V15.9992H77.8008V10.6992Z" fill="white"/>
<path d="M83.8992 10.0996C83.3992 10.0996 82.9992 10.2996 82.6992 10.5996C82.3992 10.8996 82.1992 11.3996 82.1992 11.7996C82.1992 12.1996 82.2992 12.6996 82.6992 12.9996C82.9992 13.2996 83.3992 13.4996 83.8992 13.4996C84.3992 13.4996 84.7992 13.2996 85.0992 12.9996C85.3992 12.6996 85.5992 12.1996 85.5992 11.7996C85.5992 11.3996 85.3992 10.8996 85.0992 10.5996C84.7992 10.2996 84.2992 10.0996 83.8992 10.0996Z" fill="white"/>
<path d="M85.2984 16H82.3984V28.8H85.2984V16Z" fill="white"/>
<path d="M105.402 16.2992C104.702 15.8992 103.802 15.6992 102.902 15.6992C102.002 15.6992 101.202 15.8992 100.402 16.2992C99.7016 16.6992 99.1016 17.1992 98.7016 17.7992C98.3016 17.0992 97.7016 16.5992 97.0016 16.2992C96.3016 15.8992 95.5016 15.6992 94.6016 15.6992C93.7016 15.6992 92.9016 15.8992 92.2016 16.2992C91.7016 16.5992 91.3016 16.8992 91.0016 17.2992V15.9992H88.1016V28.7992H91.0016V20.6992C91.0016 20.2992 91.2016 19.9992 91.3016 19.6992C91.6016 19.2992 91.9016 18.9992 92.3016 18.7992C92.7016 18.5992 93.0016 18.4992 93.7016 18.4992C94.4016 18.4992 95.1016 18.6992 95.7016 19.1992C96.2016 19.6992 96.5016 20.2992 96.5016 21.1992V28.7992H99.4016V21.1992C99.4016 20.5992 99.5016 20.1992 99.8016 19.7992C100.002 19.3992 100.402 19.0992 100.802 18.8992C101.202 18.6992 101.402 18.5992 102.202 18.5992C103.002 18.5992 103.602 18.7992 104.202 19.2992C104.702 19.7992 105.002 20.3992 105.002 21.2992V28.8992H107.902V20.5992C107.902 19.5992 107.702 18.7992 107.202 17.9992C106.802 17.2992 106.202 16.7992 105.402 16.3992V16.2992Z" fill="white"/>
<path d="M119.5 17.3992C119.1 16.9992 118.7 16.5992 118.2 16.2992C117.4 15.8992 116.8 15.6992 115.6 15.6992C114.4 15.6992 113.4 15.9992 112.5 16.5992C111.6 17.1992 110.9 17.9992 110.3 18.9992C109.8 19.9992 109.5 21.1992 109.5 22.3992C109.5 23.5992 109.8 24.7992 110.3 25.7992C110.8 26.7992 111.5 27.5992 112.5 28.1992C113.4 28.7992 114.5 29.0992 115.6 29.0992C116.6 29.0992 117.4 28.7992 118.2 28.3992C118.7 28.0992 119.1 27.7992 119.5 27.3992V28.7992H122.4V15.9992H119.5V17.3992ZM118.7 25.1992C118 25.8992 117.2 26.2992 116.1 26.2992C115 26.2992 114.8 26.1992 114.2 25.7992C113.7 25.4992 113.2 24.9992 112.9 24.3992C112.6 23.7992 112.4 23.1992 112.4 22.3992C112.4 21.5992 112.5 20.9992 112.9 20.3992C113.2 19.7992 113.6 19.3992 114.2 18.9992C114.7 18.6992 115.3 18.4992 116.1 18.4992C116.9 18.4992 117.5 18.5992 118 18.9992C118.5 19.2992 118.9 19.7992 119.2 20.3992C119.5 20.9992 119.7 21.2992 119.7 22.3992C119.7 23.4992 119.4 24.3992 118.7 25.1992Z" fill="white"/>
<path d="M128.002 9.59961H125.102V28.7996H128.002V9.59961Z" fill="white"/>
</g>
<defs>
<clipPath id="clip0_675_7257">
<rect width="128" height="40" fill="white"/>
</clipPath>
</defs>
</svg>
