<svg width="74" height="32" viewBox="0 0 74 32" fill="none" xmlns="http://www.w3.org/2000/svg">
<path d="M6 28L4 3H28L26 28L16 31L6 28Z" fill="white"/>
<path d="M26 5H16V29.5L24 27L26 5Z" fill="#DCDCDC"/>
<path d="M19.5 17.5H9.5L9 14L17 11.5H9L8.5 8.5H24L23.5 12L17 14.5H23L22 24L16 26L10 24L9.5 19H12.5L13 21.5L16 22.5L19 21.5L19.5 17.5Z" fill="#1D1D1D"/>
<path d="M46.8686 14.3828H44.6911C44.6513 14.1011 44.5701 13.8509 44.4474 13.6321C44.3248 13.41 44.1674 13.2211 43.9751 13.0653C43.7829 12.9096 43.5608 12.7902 43.3089 12.7074C43.0604 12.6245 42.7902 12.5831 42.4986 12.5831C41.9716 12.5831 41.5125 12.714 41.1214 12.9759C40.7304 13.2344 40.4271 13.6122 40.2116 14.1094C39.9962 14.6032 39.8885 15.2031 39.8885 15.9091C39.8885 16.6349 39.9962 17.2448 40.2116 17.7386C40.4304 18.2325 40.7353 18.6054 41.1264 18.8572C41.5175 19.1091 41.9699 19.2351 42.4837 19.2351C42.772 19.2351 43.0388 19.197 43.2841 19.1207C43.5327 19.0445 43.7531 18.9335 43.9453 18.7876C44.1375 18.6385 44.2966 18.4579 44.4226 18.2457C44.5518 18.0336 44.6413 17.7917 44.6911 17.5199L46.8686 17.5298C46.8123 17.9972 46.6714 18.4479 46.446 18.8821C46.224 19.313 45.924 19.6991 45.5462 20.0405C45.1716 20.3786 44.7242 20.647 44.2038 20.8459C43.6868 21.0414 43.1018 21.1392 42.4489 21.1392C41.5407 21.1392 40.7287 20.9337 40.0128 20.5227C39.3002 20.1117 38.7367 19.5168 38.3224 18.7379C37.9115 17.959 37.706 17.0161 37.706 15.9091C37.706 14.7988 37.9148 13.8542 38.3324 13.0753C38.75 12.2964 39.3168 11.7031 40.0327 11.2955C40.7486 10.8845 41.554 10.679 42.4489 10.679C43.0388 10.679 43.5857 10.7618 44.0895 10.9276C44.5966 11.0933 45.0457 11.3352 45.4368 11.6534C45.8279 11.9683 46.1461 12.3544 46.3913 12.8118C46.6399 13.2692 46.799 13.7929 46.8686 14.3828ZM53.4457 13.7464C53.406 13.3454 53.2353 13.0339 52.9337 12.8118C52.632 12.5897 52.2227 12.4787 51.7057 12.4787C51.3543 12.4787 51.0577 12.5284 50.8158 12.6278C50.5738 12.724 50.3882 12.8582 50.2589 13.0305C50.133 13.2029 50.07 13.3984 50.07 13.6172C50.0634 13.7995 50.1015 13.9586 50.1844 14.0945C50.2705 14.2304 50.3882 14.348 50.5373 14.4474C50.6865 14.5436 50.8588 14.6281 51.0544 14.701C51.2499 14.7706 51.4587 14.8303 51.6808 14.88L52.5956 15.0987C53.0397 15.1982 53.4474 15.3307 53.8186 15.4964C54.1898 15.6622 54.5113 15.866 54.7831 16.108C55.0549 16.3499 55.2653 16.6349 55.4145 16.9631C55.5669 17.2912 55.6448 17.6674 55.6481 18.0916C55.6448 18.7147 55.4857 19.255 55.1709 19.7124C54.8593 20.1664 54.4086 20.5194 53.8186 20.7713C53.2319 21.0199 52.5243 21.1442 51.6957 21.1442C50.8738 21.1442 50.1578 21.0182 49.548 20.7663C48.9415 20.5144 48.4675 20.1416 48.1261 19.6477C47.7881 19.1506 47.6107 18.5357 47.5942 17.8033H49.6773C49.7005 18.1446 49.7982 18.4297 49.9706 18.6584C50.1462 18.8838 50.3799 19.0545 50.6716 19.1705C50.9666 19.2831 51.2997 19.3395 51.6709 19.3395C52.0355 19.3395 52.352 19.2865 52.6204 19.1804C52.8922 19.0743 53.1027 18.9268 53.2518 18.7379C53.401 18.549 53.4756 18.3319 53.4756 18.0866C53.4756 17.858 53.4076 17.6657 53.2717 17.5099C53.1391 17.3542 52.9436 17.2216 52.6851 17.1122C52.4299 17.0028 52.1167 16.9034 51.7454 16.8139L50.6368 16.5355C49.7783 16.3267 49.1006 16.0002 48.6034 15.5561C48.1062 15.112 47.8593 14.5137 47.8626 13.7614C47.8593 13.1449 48.0234 12.6063 48.3548 12.1456C48.6896 11.6849 49.1486 11.3253 49.7319 11.0668C50.3153 10.8082 50.9782 10.679 51.7206 10.679C52.4763 10.679 53.1358 10.8082 53.6993 11.0668C54.266 11.3253 54.7069 11.6849 55.0217 12.1456C55.3366 12.6063 55.499 13.1399 55.5089 13.7464H53.4457ZM62.1296 13.7464C62.0898 13.3454 61.9191 13.0339 61.6175 12.8118C61.3159 12.5897 60.9065 12.4787 60.3895 12.4787C60.0382 12.4787 59.7415 12.5284 59.4996 12.6278C59.2576 12.724 59.072 12.8582 58.9428 13.0305C58.8168 13.2029 58.7538 13.3984 58.7538 13.6172C58.7472 13.7995 58.7853 13.9586 58.8682 14.0945C58.9544 14.2304 59.072 14.348 59.2212 14.4474C59.3703 14.5436 59.5427 14.6281 59.7382 14.701C59.9338 14.7706 60.1426 14.8303 60.3646 14.88L61.2794 15.0987C61.7235 15.1982 62.1312 15.3307 62.5024 15.4964C62.8736 15.6622 63.1951 15.866 63.4669 16.108C63.7387 16.3499 63.9492 16.6349 64.0983 16.9631C64.2508 17.2912 64.3287 17.6674 64.332 18.0916C64.3287 18.7147 64.1696 19.255 63.8547 19.7124C63.5431 20.1664 63.0924 20.5194 62.5024 20.7713C61.9158 21.0199 61.2082 21.1442 60.3796 21.1442C59.5576 21.1442 58.8417 21.0182 58.2318 20.7663C57.6253 20.5144 57.1513 20.1416 56.81 19.6477C56.4719 19.1506 56.2946 18.5357 56.278 17.8033H58.3611C58.3843 18.1446 58.4821 18.4297 58.6544 18.6584C58.8301 18.8838 59.0637 19.0545 59.3554 19.1705C59.6504 19.2831 59.9835 19.3395 60.3547 19.3395C60.7193 19.3395 61.0358 19.2865 61.3043 19.1804C61.576 19.0743 61.7865 18.9268 61.9357 18.7379C62.0848 18.549 62.1594 18.3319 62.1594 18.0866C62.1594 17.858 62.0914 17.6657 61.9555 17.5099C61.823 17.3542 61.6274 17.2216 61.3689 17.1122C61.1137 17.0028 60.8005 16.9034 60.4293 16.8139L59.3206 16.5355C58.4622 16.3267 57.7844 16.0002 57.2872 15.5561C56.7901 15.112 56.5431 14.5137 56.5465 13.7614C56.5431 13.1449 56.7072 12.6063 57.0386 12.1456C57.3734 11.6849 57.8324 11.3253 58.4158 11.0668C58.9991 10.8082 59.662 10.679 60.4044 10.679C61.1601 10.679 61.8197 10.8082 62.3831 11.0668C62.9499 11.3253 63.3907 11.6849 63.7055 12.1456C64.0204 12.6063 64.1828 13.1399 64.1928 13.7464H62.1296ZM68.9938 21.1392C68.2514 21.1392 67.5901 21.0116 67.0101 20.7564C66.4334 20.4979 65.9777 20.1432 65.6429 19.6925C65.3115 19.2384 65.1408 18.7147 65.1309 18.1214H67.2985C67.3117 18.37 67.3929 18.5888 67.5421 18.7777C67.6945 18.9633 67.8967 19.1075 68.1486 19.2102C68.4005 19.313 68.6839 19.3643 68.9988 19.3643C69.3269 19.3643 69.6169 19.3063 69.8688 19.1903C70.1207 19.0743 70.3179 18.9136 70.4604 18.7081C70.6029 18.5026 70.6742 18.2656 70.6742 17.9972C70.6742 17.7254 70.5979 17.4851 70.4455 17.2763C70.2963 17.0642 70.0809 16.8984 69.7992 16.7791C69.5208 16.6598 69.1893 16.6001 68.8049 16.6001H67.8553V15.0192H68.8049C69.1297 15.0192 69.4164 14.9628 69.6649 14.8501C69.9168 14.7375 70.1124 14.5817 70.2516 14.3828C70.3908 14.1806 70.4604 13.9453 70.4604 13.6768C70.4604 13.4216 70.3991 13.1979 70.2764 13.0057C70.1571 12.8101 69.9881 12.6577 69.7693 12.5483C69.5539 12.4389 69.302 12.3842 69.0137 12.3842C68.722 12.3842 68.4552 12.4373 68.2132 12.5433C67.9713 12.6461 67.7774 12.7936 67.6316 12.9858C67.4857 13.178 67.4078 13.4034 67.3979 13.6619H65.3347C65.3446 13.0753 65.512 12.5582 65.8368 12.1108C66.1616 11.6634 66.5991 11.3137 67.1493 11.0618C67.7028 10.8066 68.3276 10.679 69.0236 10.679C69.7263 10.679 70.3411 10.8066 70.8681 11.0618C71.3951 11.317 71.8044 11.6617 72.0961 12.0959C72.391 12.5268 72.5369 13.0107 72.5336 13.5476C72.5369 14.1177 72.3595 14.5933 72.0016 14.9744C71.647 15.3556 71.1846 15.5975 70.6145 15.7003V15.7798C71.3636 15.8759 71.9336 16.1361 72.3247 16.5604C72.7192 16.9813 72.9147 17.5083 72.9114 18.1413C72.9147 18.7214 72.7473 19.2367 72.4093 19.6875C72.0745 20.1383 71.6122 20.4929 71.0222 20.7514C70.4322 21.0099 69.7561 21.1392 68.9938 21.1392Z" fill="white"/>
</svg>
