<svg width="159" height="32" viewBox="0 0 159 32" fill="none" xmlns="http://www.w3.org/2000/svg">
<rect x="2" y="2" width="28" height="28" fill="white"/>
<rect x="3" y="3" width="26" height="26" fill="#021D25"/>
<path d="M8 9.20927C8 9.12615 8.17939 9.06234 8.28317 9.06234C9.09859 9.02078 10.295 9 11.5508 9C15.063 9 16.4314 10.9264 16.4314 13.3946C16.4314 16.6181 14.0964 17.9999 11.232 17.9999C10.7517 17.9999 10.5841 17.9791 10.2491 17.9791V22.8531C10.2491 22.9584 10.2076 23 10.1023 23H8.14678C8.04151 23 8 22.9584 8 22.8531V9.20927ZM10.2491 15.9488C10.5411 15.9696 10.7724 15.9696 11.2735 15.9696C12.7576 15.9696 14.1527 15.4457 14.1527 13.4376C14.1527 11.8258 13.1564 11.0095 11.4618 11.0095C10.9607 11.0095 10.4789 11.0303 10.2491 11.0511V15.9488ZM21.1564 14.4409C20.1527 14.4409 19.8176 14.944 19.8176 15.3626C19.8176 15.8226 20.0474 16.1373 21.3862 16.8274C23.3729 17.7906 24 18.7108 24 20.0718C24 22.1021 22.4522 23 20.3617 23C19.2543 23 18.3099 22.7758 17.7672 22.4612C17.6842 22.4196 17.662 22.3573 17.662 22.2519V20.5734C17.662 20.4473 17.7242 20.4057 17.8087 20.468C18.6034 20.9919 19.5256 21.222 20.3617 21.222C21.3655 21.222 21.7835 20.8035 21.7835 20.238C21.7835 19.7779 21.4915 19.3802 20.215 18.7108C18.4166 17.853 17.6635 16.9729 17.6635 15.508C17.6635 13.8754 18.9385 12.6447 21.1549 12.6447C22.2417 12.6447 23.0096 12.6822 23.4277 12.8707C23.533 12.933 23.5537 13.0384 23.5537 13.1215V14.8594C23.5537 14.9633 23.4915 15.0271 23.3655 14.9856C22.9623 14.7462 22.1601 14.4409 21.1564 14.4409Z" fill="white"/>
<path d="M44.1118 8.47412H50.4683C50.8127 8.47412 51.1608 8.50033 51.5127 8.55273C51.8646 8.60514 52.2015 8.70622 52.5234 8.85596C52.8454 8.99821 53.1449 9.19287 53.4219 9.43994C53.6989 9.68701 53.9422 10.0052 54.1519 10.3945C54.3615 10.7764 54.5225 11.2406 54.6348 11.7871C54.7546 12.3337 54.8145 12.9738 54.8145 13.7075C54.8145 14.4412 54.7508 15.0814 54.6235 15.6279C54.4963 16.167 54.3241 16.6274 54.1069 17.0093C53.8898 17.3911 53.6353 17.7018 53.3433 17.9414C53.0513 18.181 52.7406 18.3719 52.4111 18.5142C52.0817 18.6489 51.741 18.7425 51.3892 18.7949C51.0448 18.8398 50.7041 18.8623 50.3672 18.8623H46.8071V24.5H44.1118V8.47412ZM50.0527 16.3579C50.457 16.3579 50.7827 16.2905 51.0298 16.1558C51.2843 16.021 51.4827 15.8338 51.625 15.5942C51.7747 15.3547 51.8758 15.0739 51.9282 14.752C51.9806 14.43 52.0068 14.0819 52.0068 13.7075C52.0068 13.3407 51.9806 12.9925 51.9282 12.6631C51.8758 12.3337 51.7747 12.0454 51.625 11.7983C51.4827 11.5438 51.2843 11.3454 51.0298 11.2031C50.7827 11.0534 50.457 10.9785 50.0527 10.9785H46.8071V16.3579H50.0527ZM57.5884 7.04785H60.25V13.2246C60.6468 13.0749 61.0736 12.9364 61.5303 12.8091C61.9196 12.7043 62.3651 12.6069 62.8667 12.5171C63.3758 12.4272 63.8999 12.3823 64.439 12.3823C64.978 12.3823 65.4647 12.4422 65.8989 12.562C66.3407 12.6743 66.7113 12.8802 67.0107 13.1797C67.3177 13.4717 67.5535 13.8722 67.7183 14.3813C67.883 14.883 67.9653 15.5269 67.9653 16.313V24.5H65.2925V16.6387C65.2925 16.3242 65.27 16.0509 65.2251 15.8188C65.1802 15.5793 65.0828 15.3846 64.9331 15.2349C64.7909 15.0776 64.5812 14.9616 64.3042 14.8867C64.0347 14.8118 63.6753 14.7744 63.2261 14.7744C62.8667 14.7744 62.5111 14.7969 62.1592 14.8418C61.8148 14.8867 61.5003 14.9354 61.2158 14.9878C60.8789 15.0477 60.557 15.1151 60.25 15.1899V24.5H57.5884V7.04785ZM70.8628 18.5703C70.8628 17.5671 70.9714 16.6799 71.1885 15.9087C71.4056 15.13 71.7425 14.4749 72.1992 13.9434C72.6634 13.4118 73.2474 13.0075 73.9512 12.7305C74.6549 12.4535 75.4972 12.3149 76.478 12.3149C77.4588 12.3149 78.3011 12.4535 79.0049 12.7305C79.7161 13.0075 80.3001 13.4118 80.7568 13.9434C81.2135 14.4749 81.5505 15.13 81.7676 15.9087C81.9847 16.6799 82.0933 17.5671 82.0933 18.5703C82.0933 19.5736 81.9847 20.4683 81.7676 21.2544C81.5505 22.033 81.2135 22.6882 80.7568 23.2197C80.3001 23.7513 79.7161 24.1556 79.0049 24.4326C78.3011 24.7096 77.4588 24.8481 76.478 24.8481C75.4972 24.8481 74.6549 24.7096 73.9512 24.4326C73.2474 24.1556 72.6634 23.7513 72.1992 23.2197C71.7425 22.6882 71.4056 22.033 71.1885 21.2544C70.9714 20.4683 70.8628 19.5736 70.8628 18.5703ZM76.478 22.5908C77.0695 22.5908 77.5487 22.5047 77.9155 22.3325C78.2824 22.1528 78.5669 21.8945 78.769 21.5576C78.9712 21.2132 79.106 20.7939 79.1733 20.2998C79.2482 19.7982 79.2856 19.2217 79.2856 18.5703C79.2856 17.9264 79.2482 17.3574 79.1733 16.8633C79.106 16.3617 78.9712 15.9424 78.769 15.6055C78.5669 15.2611 78.2824 15.0028 77.9155 14.8306C77.5487 14.6509 77.0695 14.561 76.478 14.561C75.894 14.561 75.4186 14.6509 75.0518 14.8306C74.6849 15.0028 74.3966 15.2611 74.187 15.6055C73.9849 15.9424 73.8464 16.3617 73.7715 16.8633C73.7041 17.3574 73.6704 17.9264 73.6704 18.5703C73.6704 19.2217 73.7041 19.7982 73.7715 20.2998C73.8464 20.7939 73.9849 21.2132 74.187 21.5576C74.3966 21.8945 74.6849 22.1528 75.0518 22.3325C75.4186 22.5047 75.894 22.5908 76.478 22.5908ZM85.8442 14.8643H84.0923V12.6519H85.8442V10.1475L88.5059 9.55225V12.6519H91.4932V14.8643H88.5059V21.2319C88.5059 21.509 88.5246 21.7373 88.562 21.917C88.6069 22.0967 88.6818 22.2427 88.7866 22.355C88.8989 22.4598 89.0524 22.5347 89.2471 22.5796C89.4492 22.617 89.7075 22.6357 90.022 22.6357C90.314 22.6357 90.576 22.632 90.8081 22.6245C91.0477 22.6095 91.2498 22.5946 91.4146 22.5796C91.6092 22.5646 91.7814 22.5459 91.9312 22.5234V24.2979C91.6691 24.4027 91.3883 24.4963 91.0889 24.5786C90.8268 24.646 90.5199 24.7059 90.168 24.7583C89.8161 24.8182 89.4305 24.8481 89.0112 24.8481C88.4272 24.8481 87.9331 24.792 87.5288 24.6797C87.132 24.5674 86.8063 24.3989 86.5518 24.1743C86.3047 23.9422 86.125 23.654 86.0127 23.3096C85.9004 22.9577 85.8442 22.5496 85.8442 22.0854V14.8643ZM93.9077 18.5703C93.9077 17.5671 94.0163 16.6799 94.2334 15.9087C94.4505 15.13 94.7874 14.4749 95.2441 13.9434C95.7083 13.4118 96.2923 13.0075 96.9961 12.7305C97.6999 12.4535 98.5422 12.3149 99.5229 12.3149C100.504 12.3149 101.346 12.4535 102.05 12.7305C102.761 13.0075 103.345 13.4118 103.802 13.9434C104.258 14.4749 104.595 15.13 104.812 15.9087C105.03 16.6799 105.138 17.5671 105.138 18.5703C105.138 19.5736 105.03 20.4683 104.812 21.2544C104.595 22.033 104.258 22.6882 103.802 23.2197C103.345 23.7513 102.761 24.1556 102.05 24.4326C101.346 24.7096 100.504 24.8481 99.5229 24.8481C98.5422 24.8481 97.6999 24.7096 96.9961 24.4326C96.2923 24.1556 95.7083 23.7513 95.2441 23.2197C94.7874 22.6882 94.4505 22.033 94.2334 21.2544C94.0163 20.4683 93.9077 19.5736 93.9077 18.5703ZM99.5229 22.5908C100.114 22.5908 100.594 22.5047 100.96 22.3325C101.327 22.1528 101.612 21.8945 101.814 21.5576C102.016 21.2132 102.151 20.7939 102.218 20.2998C102.293 19.7982 102.331 19.2217 102.331 18.5703C102.331 17.9264 102.293 17.3574 102.218 16.8633C102.151 16.3617 102.016 15.9424 101.814 15.6055C101.612 15.2611 101.327 15.0028 100.96 14.8306C100.594 14.6509 100.114 14.561 99.5229 14.561C98.939 14.561 98.4635 14.6509 98.0967 14.8306C97.7298 15.0028 97.4416 15.2611 97.2319 15.6055C97.0298 15.9424 96.8913 16.3617 96.8164 16.8633C96.749 17.3574 96.7153 17.9264 96.7153 18.5703C96.7153 19.2217 96.749 19.7982 96.8164 20.2998C96.8913 20.7939 97.0298 21.2132 97.2319 21.5576C97.4416 21.8945 97.7298 22.1528 98.0967 22.3325C98.4635 22.5047 98.939 22.5908 99.5229 22.5908ZM107.497 22.2202C107.826 22.2951 108.193 22.3625 108.597 22.4224C108.942 22.4748 109.346 22.5197 109.81 22.5571C110.282 22.5946 110.798 22.6133 111.36 22.6133C111.974 22.6133 112.46 22.5908 112.82 22.5459C113.179 22.501 113.449 22.4261 113.628 22.3213C113.816 22.209 113.935 22.0592 113.988 21.8721C114.04 21.6849 114.066 21.4491 114.066 21.1646C114.066 21.0148 114.055 20.88 114.033 20.7603C114.018 20.633 113.973 20.5207 113.898 20.4233C113.831 20.3185 113.726 20.2324 113.583 20.165C113.449 20.0902 113.265 20.034 113.033 19.9966L110.551 19.5361C109.982 19.4388 109.503 19.3078 109.114 19.1431C108.724 18.9784 108.41 18.7612 108.17 18.4917C107.938 18.2147 107.77 17.8778 107.665 17.481C107.568 17.0767 107.519 16.5863 107.519 16.0098C107.519 14.7669 107.931 13.8423 108.754 13.2358C109.585 12.6219 110.768 12.3149 112.303 12.3149C112.842 12.3149 113.336 12.3486 113.786 12.416C114.242 12.4759 114.639 12.547 114.976 12.6294C115.365 12.7192 115.721 12.8203 116.043 12.9326V14.8418C115.684 14.7819 115.309 14.7295 114.92 14.6846C114.583 14.6471 114.205 14.6097 113.786 14.5723C113.374 14.5348 112.955 14.5161 112.528 14.5161C112.041 14.5161 111.637 14.5386 111.315 14.5835C110.993 14.6209 110.738 14.6883 110.551 14.7856C110.364 14.883 110.233 15.0103 110.158 15.1675C110.083 15.3172 110.046 15.5081 110.046 15.7402C110.046 15.9199 110.061 16.0809 110.091 16.2231C110.121 16.3654 110.184 16.4927 110.282 16.605C110.379 16.7173 110.514 16.8146 110.686 16.897C110.858 16.9793 111.09 17.0467 111.382 17.0991L113.954 17.582C114.456 17.6794 114.879 17.8066 115.223 17.9639C115.575 18.1211 115.86 18.3345 116.077 18.604C116.294 18.8735 116.451 19.2179 116.548 19.6372C116.646 20.049 116.694 20.5581 116.694 21.1646C116.694 21.741 116.634 22.2576 116.515 22.7144C116.402 23.1711 116.17 23.5566 115.818 23.8711C115.466 24.1855 114.969 24.4251 114.325 24.5898C113.681 24.762 112.831 24.8481 111.775 24.8481C111.191 24.8481 110.641 24.807 110.125 24.7246C109.608 24.6497 109.155 24.5636 108.766 24.4663C108.309 24.354 107.886 24.2267 107.497 24.0845V22.2202ZM119.693 7.04785H122.354V13.2246C122.751 13.0749 123.178 12.9364 123.635 12.8091C124.024 12.7043 124.47 12.6069 124.971 12.5171C125.48 12.4272 126.004 12.3823 126.543 12.3823C127.083 12.3823 127.569 12.4422 128.003 12.562C128.445 12.6743 128.816 12.8802 129.115 13.1797C129.422 13.4717 129.658 13.8722 129.823 14.3813C129.987 14.883 130.07 15.5269 130.07 16.313V24.5H127.397V16.6387C127.397 16.3242 127.375 16.0509 127.33 15.8188C127.285 15.5793 127.187 15.3846 127.038 15.2349C126.895 15.0776 126.686 14.9616 126.409 14.8867C126.139 14.8118 125.78 14.7744 125.331 14.7744C124.971 14.7744 124.616 14.7969 124.264 14.8418C123.919 14.8867 123.605 14.9354 123.32 14.9878C122.983 15.0477 122.661 15.1151 122.354 15.1899V24.5H119.693V7.04785ZM132.967 18.5703C132.967 17.5671 133.076 16.6799 133.293 15.9087C133.51 15.13 133.847 14.4749 134.304 13.9434C134.768 13.4118 135.352 13.0075 136.056 12.7305C136.759 12.4535 137.602 12.3149 138.583 12.3149C139.563 12.3149 140.406 12.4535 141.109 12.7305C141.821 13.0075 142.405 13.4118 142.861 13.9434C143.318 14.4749 143.655 15.13 143.872 15.9087C144.089 16.6799 144.198 17.5671 144.198 18.5703C144.198 19.5736 144.089 20.4683 143.872 21.2544C143.655 22.033 143.318 22.6882 142.861 23.2197C142.405 23.7513 141.821 24.1556 141.109 24.4326C140.406 24.7096 139.563 24.8481 138.583 24.8481C137.602 24.8481 136.759 24.7096 136.056 24.4326C135.352 24.1556 134.768 23.7513 134.304 23.2197C133.847 22.6882 133.51 22.033 133.293 21.2544C133.076 20.4683 132.967 19.5736 132.967 18.5703ZM138.583 22.5908C139.174 22.5908 139.653 22.5047 140.02 22.3325C140.387 22.1528 140.671 21.8945 140.874 21.5576C141.076 21.2132 141.21 20.7939 141.278 20.2998C141.353 19.7982 141.39 19.2217 141.39 18.5703C141.39 17.9264 141.353 17.3574 141.278 16.8633C141.21 16.3617 141.076 15.9424 140.874 15.6055C140.671 15.2611 140.387 15.0028 140.02 14.8306C139.653 14.6509 139.174 14.561 138.583 14.561C137.999 14.561 137.523 14.6509 137.156 14.8306C136.789 15.0028 136.501 15.2611 136.292 15.6055C136.089 15.9424 135.951 16.3617 135.876 16.8633C135.809 17.3574 135.775 17.9264 135.775 18.5703C135.775 19.2217 135.809 19.7982 135.876 20.2998C135.951 20.7939 136.089 21.2132 136.292 21.5576C136.501 21.8945 136.789 22.1528 137.156 22.3325C137.523 22.5047 137.999 22.5908 138.583 22.5908ZM149.779 29.9468H147.118V12.6519H149.072L149.397 13.5278C149.809 13.3032 150.258 13.1011 150.745 12.9214C151.164 12.7716 151.644 12.6331 152.183 12.5059C152.729 12.3786 153.317 12.3149 153.946 12.3149C154.575 12.3149 155.121 12.4347 155.585 12.6743C156.05 12.9064 156.435 13.277 156.742 13.7861C157.057 14.2878 157.289 14.9354 157.438 15.729C157.596 16.5151 157.674 17.4622 157.674 18.5703C157.674 19.7458 157.581 20.734 157.394 21.5352C157.214 22.3363 156.941 22.9839 156.574 23.478C156.214 23.9647 155.769 24.3128 155.237 24.5225C154.706 24.7396 154.092 24.8481 153.396 24.8481C152.894 24.8481 152.422 24.807 151.98 24.7246C151.546 24.6423 151.164 24.5487 150.835 24.4438C150.453 24.3241 150.101 24.1893 149.779 24.0396V29.9468ZM149.779 22.1304C149.996 22.1978 150.24 22.2539 150.509 22.2988C150.741 22.3363 151.015 22.3737 151.329 22.4111C151.651 22.4411 152.01 22.4561 152.407 22.4561C152.894 22.4561 153.294 22.4111 153.609 22.3213C153.931 22.224 154.182 22.033 154.361 21.7485C154.549 21.464 154.68 21.0635 154.754 20.5469C154.829 20.0228 154.867 19.3377 154.867 18.4917C154.867 17.7954 154.837 17.2077 154.777 16.7285C154.724 16.2419 154.62 15.8488 154.462 15.5493C154.313 15.2424 154.099 15.0215 153.822 14.8867C153.553 14.752 153.205 14.6846 152.778 14.6846C152.389 14.6846 152.014 14.7145 151.655 14.7744C151.295 14.8268 150.977 14.883 150.7 14.9429C150.371 15.0177 150.064 15.1001 149.779 15.1899V22.1304Z" fill="white"/>
</svg>
