<svg width="131" height="24" viewBox="0 0 131 24" fill="none" xmlns="http://www.w3.org/2000/svg">
<g clip-path="url(#clip0_675_7258)">
<path fill-rule="evenodd" clip-rule="evenodd" d="M2.25129 21.0941C-0.750469 18.1178 -0.750421 13.2923 2.25138 10.316L10.4044 2.23224C12.942 -0.283773 16.8124 -0.672891 19.7622 1.06489C20.6747 1.6024 20.6667 2.83544 19.9162 3.57952C19.1658 4.3236 17.9407 4.25956 16.9221 3.96416C15.6177 3.5859 14.1508 3.90678 13.1221 4.92679L4.96903 13.0105C3.46813 14.4987 3.46811 16.9114 4.96899 18.3996C6.4699 19.8878 8.9034 19.8878 10.4043 18.3996L26.7102 2.23234C29.7121 -0.743955 34.5789 -0.743968 37.5808 2.23231L45.7339 10.316C48.7357 13.2922 48.7357 18.1178 45.7339 21.0941C42.7321 24.0704 37.8652 24.0704 34.8633 21.0941L32.1457 18.3996L28.7486 21.7678C26.211 24.2838 22.3406 24.6729 19.3907 22.9351C18.4783 22.3976 18.4863 21.1646 19.2368 20.4205C19.9872 19.6764 21.2122 19.7404 22.2309 20.0358C23.5353 20.4141 25.0022 20.0932 26.0309 19.0732L29.5251 15.6088C30.9724 14.1738 33.3189 14.1738 34.7663 15.6088L37.581 18.3996C39.0819 19.8877 41.5153 19.8877 43.0162 18.3996C44.5171 16.9114 44.5171 14.4987 43.0162 13.0105L34.8631 4.92688C33.3622 3.43874 30.9288 3.43875 29.4279 4.9269L13.122 21.0942C10.1201 24.0705 5.25311 24.0705 2.25129 21.0941Z" fill="white"/>
<path d="M78.6856 4.32031C76.7968 4.32031 75.3658 4.99667 74.4214 6.3494C73.5915 4.99667 72.275 4.32031 70.5293 4.32031C68.7263 4.32031 67.4098 4.94031 66.5512 6.20849V4.71486H62.8594V18.8057H66.5512V10.8866C66.5512 8.8294 67.6101 7.70213 69.2414 7.70213C70.7582 7.70213 71.6454 8.68849 71.6454 10.3794V18.8057H75.3372V10.8866C75.3372 8.8294 76.3103 7.70213 77.9988 7.70213C79.5156 7.70213 80.4027 8.68849 80.4027 10.3794V18.8057H84.0946V10.1257C84.0946 6.60304 81.9768 4.32031 78.6856 4.32031Z" fill="white"/>
<path d="M97.8223 6.37758C96.7062 4.99667 95.1608 4.32031 93.1575 4.32031C91.24 4.32031 89.6088 5.05304 88.2351 6.49031C86.89 7.92758 86.2031 9.67486 86.2031 11.7603C86.2031 13.8457 86.89 15.6212 88.2351 17.0585C89.6088 18.4957 91.24 19.2003 93.1575 19.2003C95.1608 19.2003 96.7062 18.5239 97.8223 17.143V18.8057H101.514V4.71486H97.8223V6.37758ZM91.0111 14.6348C90.267 13.8739 89.8949 12.9157 89.8949 11.7603C89.8949 10.6048 90.267 9.64667 91.0111 8.91395C91.7552 8.15304 92.6996 7.78667 93.8443 7.78667C94.9891 7.78667 95.9335 8.15304 96.6776 8.91395C97.4503 9.64667 97.8223 10.6048 97.8223 11.7603C97.8223 12.9157 97.4503 13.8739 96.6776 14.6348C95.9335 15.3676 94.9891 15.7339 93.8443 15.7339C92.6996 15.7339 91.7552 15.3676 91.0111 14.6348Z" fill="white"/>
<path d="M115.136 7.13847V4.71484H104.404V8.12484H110.156L104.117 16.3821V18.8057H115.422V15.3957H109.068L115.136 7.13847Z" fill="white"/>
<path d="M130.856 13.2539C130.942 12.7185 130.999 12.2394 130.999 11.7603C130.999 9.64667 130.313 7.8994 128.939 6.46213C127.594 5.02485 125.848 4.32031 123.759 4.32031C121.555 4.32031 119.724 5.02485 118.321 6.46213C116.919 7.87122 116.203 9.64667 116.203 11.7603C116.203 13.9021 116.919 15.6776 118.35 17.0866C119.781 18.4957 121.67 19.2003 124.045 19.2003C126.792 19.2003 128.882 18.1857 130.284 16.1848L127.308 14.4939C126.592 15.4239 125.505 15.903 124.102 15.903C121.899 15.903 120.554 15.0294 120.067 13.2539H130.856ZM120.01 10.4357C120.439 8.63213 121.784 7.5894 123.759 7.5894C125.447 7.5894 126.878 8.5194 127.308 10.4357H120.01Z" fill="white"/>
</g>
<defs>
<clipPath id="clip0_675_7258">
<rect width="131" height="24" fill="white"/>
</clipPath>
</defs>
</svg>
