<svg width="80" height="32" viewBox="0 0 80 32" fill="none" xmlns="http://www.w3.org/2000/svg">
<path d="M6 28L4 3H28L26 28L16 31L6 28Z" fill="white"/>
<path d="M26 5H16V29.5L24 27L26 5Z" fill="#DCDCDC"/>
<path d="M9.5 17.5L8.5 8H24L23.5 11H11.5L12 14.5H23L22 24L16 26L10 24L9.5 19H12.5L13 21.5L16 22.5L19 21.5L19.5 17.5H9.5Z" fill="#1D1D1D"/>
<path d="M32.8849 21V10.8182H35.0376V15.0192H39.4077V10.8182H41.5554V21H39.4077V16.794H35.0376V21H32.8849ZM42.4525 12.593V10.8182H50.8147V12.593H47.6975V21H45.5697V12.593H42.4525ZM51.7018 10.8182H54.3566L57.1606 17.6591H57.2799L60.0839 10.8182H62.7388V21H60.6507V14.3729H60.5662L57.9312 20.9503H56.5093L53.8744 14.348H53.7899V21H51.7018V10.8182ZM64.0224 21V10.8182H66.1751V19.2251H70.5401V21H64.0224ZM75.1348 21.1392C74.4322 21.1392 73.8057 21.0099 73.2556 20.7514C72.7087 20.4929 72.2745 20.1366 71.953 19.6825C71.6315 19.2285 71.4641 18.7081 71.4509 18.1214H73.5389C73.5621 18.5159 73.7279 18.8357 74.0361 19.081C74.3443 19.3262 74.7106 19.4489 75.1348 19.4489C75.4729 19.4489 75.7712 19.3743 76.0297 19.2251C76.2915 19.0727 76.4954 18.8622 76.6412 18.5938C76.7904 18.322 76.8649 18.0104 76.8649 17.6591C76.8649 17.3011 76.7887 16.9863 76.6362 16.7145C76.4871 16.4427 76.2799 16.2306 76.0148 16.0781C75.7496 15.9257 75.4464 15.8478 75.105 15.8445C74.8067 15.8445 74.5167 15.9058 74.235 16.0284C73.9565 16.151 73.7395 16.3184 73.5837 16.5305L71.6696 16.1875L72.1519 10.8182H78.3763V12.5781H73.9267L73.6632 15.1286H73.7229C73.9019 14.8767 74.172 14.6679 74.5333 14.5021C74.8945 14.3364 75.2989 14.2536 75.7463 14.2536C76.3595 14.2536 76.9064 14.3977 77.3869 14.6861C77.8675 14.9744 78.247 15.3705 78.5254 15.8743C78.8039 16.3748 78.9414 16.9515 78.9381 17.6044C78.9414 18.2905 78.7823 18.9003 78.4608 19.4339C78.1426 19.9643 77.6968 20.3819 77.1235 20.6868C76.5534 20.9884 75.8905 21.1392 75.1348 21.1392Z" fill="white"/>
</svg>
