<svg width="133" height="48" viewBox="0 0 133 48" fill="none" xmlns="http://www.w3.org/2000/svg">
<path d="M14.635 6H0V41L14.635 6Z" fill="white"/>
<path d="M24.9336 6H39.5495V41L24.9336 6Z" fill="white"/>
<path d="M19.7842 18.9004L29.0991 41.0006H22.9876L20.2037 33.9644H13.3867L19.7842 18.9004Z" fill="white"/>
<path d="M63.4246 28.2569L65.1502 33.2052C65.2074 33.3291 65.2932 33.3863 65.4458 33.3863H68.7637C68.9448 33.3863 68.9734 33.3005 68.9448 33.1194L62.0898 14.0796C62.0612 13.927 62.0326 13.8984 61.88 13.8984H57.7612C57.6468 13.8984 57.5801 13.9842 57.5801 14.1082C57.5229 15.1093 57.4371 15.4144 57.3131 15.7099L51.2017 33.0908C51.1731 33.3005 51.2399 33.3863 51.4115 33.3863H54.3766C54.5578 33.3863 54.6436 33.3291 54.7103 33.148L56.3406 28.2569H63.4246ZM57.2845 25.0248C58.1807 22.3171 59.363 18.8467 59.8397 16.8636H59.8683C60.4594 18.942 61.8514 23.0608 62.4807 25.0248H57.2845Z" fill="white"/>
<path d="M77.7572 33.6833C79.5401 33.6833 81.4374 33.3591 83.3633 32.5297C83.5158 32.4725 83.5444 32.4057 83.5444 32.2627C83.4872 31.7288 83.4205 30.9565 83.4205 30.3654V12.4411C83.4205 12.3267 83.4205 12.2695 83.2775 12.2695H80.0454C79.9215 12.2695 79.8643 12.3267 79.8643 12.4793V18.5526C79.3589 18.4954 79.0062 18.4668 78.5867 18.4668C73.3715 18.4668 70.168 21.9086 70.168 26.2085C70.168 31.1949 73.4573 33.6833 77.7572 33.6833ZM79.8642 30.3654C79.3303 30.537 78.7392 30.6038 78.1386 30.6038C75.7741 30.6038 73.8386 29.269 73.8386 26.0274C73.8386 23.1576 75.8313 21.4605 78.4723 21.4605C79.0062 21.4605 79.4733 21.5177 79.8642 21.6702V30.3654Z" fill="white"/>
<path d="M93.8563 18.4668C89.4038 18.4668 86.6484 21.88 86.6484 26.0941C86.6484 29.8602 88.8413 33.6834 93.7895 33.6834C97.975 33.6834 100.912 30.6038 100.912 25.9988C100.912 21.9372 98.4232 18.4668 93.8563 18.4668ZM93.6751 21.4605C96.1922 21.4605 97.26 23.6248 97.26 26.0941C97.26 29.1451 95.6868 30.661 93.8563 30.661C91.5967 30.661 90.2619 28.7637 90.2619 26.0274C90.2619 23.2148 91.6825 21.4605 93.6751 21.4605Z" fill="white"/>
<path d="M104.253 12.2695C104.129 12.2695 104.043 12.3267 104.043 12.4793V32.768C104.043 32.8538 104.129 33.0064 104.253 33.035C105.673 33.4736 107.161 33.6833 108.696 33.6833C113.091 33.6833 117.362 30.9565 117.362 25.4648C117.362 21.4891 114.635 18.4668 110.364 18.4668C109.382 18.4668 108.467 18.6193 107.666 18.8863L107.628 12.5079C107.628 12.2981 107.571 12.2695 107.361 12.2695H104.253ZM113.711 25.8271C113.711 29.1164 111.461 30.661 109.029 30.661C108.524 30.661 108.076 30.6324 107.666 30.5084V21.8514C108.133 21.6702 108.696 21.5177 109.735 21.5177C112.08 21.5177 113.711 23.005 113.711 25.8271Z" fill="white"/>
<path d="M129.424 26.895C130.873 26.895 132.065 26.8664 132.475 26.7711C132.628 26.7425 132.685 26.6853 132.714 26.5613C132.799 26.2372 132.837 25.5602 132.837 24.7308C132.837 21.9086 131.14 18.4668 126.755 18.4668C122.274 18.4668 119.785 22.1184 119.785 26.2372C119.785 29.8888 121.711 33.6834 127.107 33.6834C129.129 33.6834 130.435 33.3592 131.56 32.8253C131.674 32.7681 131.731 32.6727 131.731 32.5011V30.0318C131.731 29.8888 131.646 29.8602 131.56 29.9174C130.435 30.3941 129.214 30.6324 127.88 30.6324C124.857 30.6324 123.484 28.9639 123.399 26.895H129.424ZM123.399 24.3399C123.637 22.8907 124.552 21.3175 126.602 21.3175C128.862 21.3175 129.453 23.2148 129.453 24.0729C129.453 24.1015 129.453 24.2254 129.453 24.3113C129.329 24.3399 128.947 24.3399 127.822 24.3399H123.399Z" fill="white"/>
</svg>
