<svg width="136" height="48" viewBox="0 0 136 48" fill="none" xmlns="http://www.w3.org/2000/svg">
<path d="M20.5 20.0625C22.6746 20.0625 24.4375 21.8254 24.4375 24C24.4375 26.1746 22.6746 27.9375 20.5 27.9375C18.3254 27.9375 16.5625 26.1746 16.5625 24C16.5625 21.8254 18.3254 20.0625 20.5 20.0625Z" stroke="white" stroke-width="1.125"/>
<path d="M11.5 29.0625H15.4375V33C15.4375 35.1746 13.6746 36.9375 11.5 36.9375C9.32538 36.9375 7.5625 35.1746 7.5625 33C7.5625 30.8254 9.32538 29.0625 11.5 29.0625Z" stroke="white" stroke-width="1.125"/>
<path d="M20.5 11.0625C22.6746 11.0625 24.4375 12.8254 24.4375 15C24.4375 17.1746 22.6746 18.9375 20.5 18.9375H16.5625V11.0625H20.5Z" stroke="white" stroke-width="1.125"/>
<path d="M11.5 11.0625H15.4375V18.9375H11.5C9.32538 18.9375 7.5625 17.1746 7.5625 15C7.5625 12.8254 9.32538 11.0625 11.5 11.0625Z" stroke="white" stroke-width="1.125"/>
<path d="M11.5 20.0625H15.4375V27.9375H11.5C9.32538 27.9375 7.5625 26.1746 7.5625 24C7.5625 21.8254 9.32538 20.0625 11.5 20.0625Z" stroke="white" stroke-width="1.125"/>
<path d="M42 8V34.5313L45.3944 34.5444V21.9105H53.5542V18.5678H45.3814V11.3296H56.0217V8H42ZM62.1056 13.3957C62.6942 13.3957 63.2587 13.16 63.6749 12.7405C64.0912 12.3209 64.325 11.7518 64.325 11.1585C64.325 10.5651 64.0912 9.99607 63.6749 9.5765C63.2587 9.15694 62.6942 8.92122 62.1056 8.92122C61.5169 8.92122 60.9524 9.15694 60.5362 9.5765C60.1199 9.99607 59.8861 10.5651 59.8861 11.1585C59.8861 11.7518 60.1199 12.3209 60.5362 12.7405C60.9524 13.16 61.5169 13.3957 62.1056 13.3957ZM60.3953 16.7253V34.5444H63.7897V16.7253H60.3953Z" fill="white"/>
<path fill-rule="evenodd" clip-rule="evenodd" d="M76.3361 16.212C71.845 16.212 68.7116 20.0417 68.7116 24.5952C68.7116 29.1487 71.845 32.9783 76.3361 32.9783C78.3988 32.9783 80.0961 32.1887 81.3363 30.8727V33.2416C81.345 33.9494 81.2143 34.6519 80.952 35.3085C80.6896 35.9651 80.3008 36.5627 79.8079 37.0669C79.315 37.5711 78.7278 37.9718 78.0804 38.2459C77.4329 38.52 76.738 38.6619 76.0358 38.6636C74.9522 38.6636 73.8816 38.2425 73.033 37.6371L71.3358 40.5982C72.6482 41.4533 74.1652 41.9355 75.7268 41.994C77.2884 42.0524 78.8367 41.6849 80.2083 40.9302C81.58 40.1756 82.7241 39.0617 83.5201 37.7061C84.3161 36.3506 84.7344 34.8036 84.7308 33.2284V16.7385H81.3363V18.3309C80.0961 17.0148 78.3988 16.2252 76.3361 16.2252V16.212ZM72.093 24.5952C72.093 21.7657 74.2341 19.5416 76.7147 19.5416C79.1952 19.5416 81.3233 21.7789 81.3233 24.5952C81.3233 27.4247 79.1822 29.6356 76.7147 29.6356C74.2341 29.6356 72.093 27.4247 72.093 24.5952Z" fill="white"/>
<path d="M96.9247 19.5417C95.9538 19.559 95.0288 19.9608 94.3496 20.6602C93.6704 21.3597 93.2916 22.3005 93.2952 23.2792V34.5445H89.9008V16.7254H93.2952V18.3573C93.8031 17.6788 94.4628 17.1308 95.2205 16.758C95.9783 16.3853 96.8127 16.1982 97.6558 16.2121C100.032 16.2121 101.86 17.3966 102.904 19.2127C103.487 18.3023 104.284 17.5516 105.225 17.028C106.166 16.5044 107.221 16.224 108.296 16.2121C112.147 16.2121 114.563 19.3443 114.563 23.2266V34.5445H111.194V23.2661C111.198 22.2873 110.819 21.3465 110.14 20.6471C109.461 19.9476 108.536 19.5458 107.565 19.5285C106.594 19.5458 105.669 19.9476 104.99 20.6471C104.311 21.3465 103.932 22.2873 103.935 23.2661V34.5313H100.541V23.2661C100.545 22.2896 100.168 21.3507 99.4913 20.6516C98.8149 19.9525 97.8932 19.5492 96.9247 19.5285V19.5417Z" fill="white"/>
<path fill-rule="evenodd" clip-rule="evenodd" d="M132.619 18.752C131.848 17.9418 130.921 17.2987 129.895 16.862C128.869 16.4252 127.766 16.2041 126.652 16.2121C121.613 16.2121 118.036 20.5024 118.036 25.6349C118.036 30.7675 121.613 35.0577 126.652 35.0577C127.765 35.0634 128.868 34.8412 129.894 34.4046C130.919 33.9681 131.846 33.3261 132.619 32.5178V34.5445H136V16.7254H132.606V18.752H132.619ZM121.417 25.6349C121.417 22.2395 124.002 19.5417 127.018 19.5417C130.021 19.5417 132.619 22.2395 132.619 25.6349C132.619 29.0303 130.034 31.715 127.018 31.715C124.015 31.715 121.417 29.0303 121.417 25.6349Z" fill="white"/>
</svg>
