<svg width="111" height="38" viewBox="0 0 111 38" fill="none" xmlns="http://www.w3.org/2000/svg">
<path d="M29.8904 13.5965C30.254 12.5193 30.3801 11.3779 30.2603 10.2487C30.1406 9.11953 29.7777 8.02861 29.1961 7.04897C28.3339 5.56723 27.0168 4.39408 25.435 3.6988C23.8532 3.00352 22.0885 2.82207 20.3954 3.18062C19.6317 2.33144 18.693 1.653 17.642 1.19073C16.5911 0.72846 15.4523 0.493015 14.3017 0.500158C12.5706 0.496035 10.8829 1.03443 9.48197 2.03771C8.08102 3.04099 7.03917 4.45733 6.50662 6.08252C5.37892 6.31028 4.31355 6.77312 3.38183 7.44004C2.4501 8.10696 1.67351 8.96257 1.10406 9.94961C0.234949 11.4272 -0.136036 13.1391 0.0446029 14.8382C0.225242 16.5373 0.94817 18.1359 2.10912 19.4035C1.74561 20.4807 1.61951 21.6221 1.73926 22.7513C1.859 23.8805 2.22183 24.9714 2.80347 25.951C3.66577 27.4327 4.98281 28.6058 6.56459 29.3011C8.14638 29.9963 9.91111 30.1778 11.6042 29.8194C12.3679 30.6686 13.3066 31.347 14.3575 31.8093C15.4084 32.2715 16.5473 32.507 17.6979 32.4998C19.4298 32.5043 21.1184 31.9657 22.5199 30.9618C23.9214 29.9578 24.9634 28.5405 25.4955 26.9143C26.6232 26.6866 27.6886 26.2237 28.6203 25.5568C29.552 24.8899 30.3286 24.0343 30.8981 23.0472C31.7661 21.5697 32.1362 19.8583 31.9551 18.1599C31.7741 16.4614 31.0511 14.8635 29.8904 13.5965ZM17.7005 30.408C16.2788 30.4099 14.9017 29.9186 13.81 29.0201C13.8592 28.9936 13.9455 28.9469 14.0018 28.9128L20.4593 25.2325C20.6214 25.1415 20.756 25.0096 20.8492 24.8502C20.9425 24.6909 20.9911 24.51 20.99 24.326V15.3433L23.7194 16.8984C23.7337 16.9054 23.746 16.9158 23.7553 16.9287C23.7645 16.9416 23.7704 16.9565 23.7724 16.9722V24.4111C23.7704 26 23.1302 27.5233 21.9921 28.6473C20.854 29.7713 19.3108 30.4044 17.7005 30.408ZM4.64225 24.9051C3.93014 23.691 3.67348 22.2685 3.91722 20.8866C3.96518 20.915 4.04893 20.9654 4.10903 20.9995L10.5665 24.6799C10.7275 24.7727 10.9105 24.8216 11.0969 24.8216C11.2833 24.8216 11.4663 24.7727 11.6272 24.6799L19.5111 20.1882V23.2983C19.512 23.3142 19.5089 23.33 19.5021 23.3445C19.4953 23.3589 19.485 23.3714 19.4721 23.381L12.9443 27.0998C11.548 27.8933 9.88973 28.1078 8.33331 27.6963C6.7769 27.2849 5.44946 26.2811 4.64225 24.9051ZM2.94348 10.9955C3.65252 9.77988 4.77241 8.84908 6.10702 8.36618C6.10702 8.42107 6.10382 8.51822 6.10382 8.58572V15.9464C6.10269 16.1303 6.1512 16.3111 6.24435 16.4703C6.3375 16.6295 6.47194 16.7614 6.63385 16.8523L14.5178 21.3433L11.7883 22.8984C11.7749 22.9071 11.7594 22.9124 11.7434 22.9139C11.7273 22.9153 11.7111 22.9128 11.6963 22.9066L5.16781 19.1846C3.77396 18.3881 2.75708 17.0788 2.34011 15.5437C1.92314 14.0086 2.14013 12.373 2.94348 10.9955ZM25.3683 16.1445L17.4844 11.6529L20.2138 10.0985C20.2273 10.0897 20.2427 10.0844 20.2588 10.083C20.2748 10.0815 20.291 10.0841 20.3059 10.0903L26.8343 13.8091C27.8345 14.3792 28.6494 15.2186 29.1835 16.229C29.7177 17.2395 29.9491 18.3792 29.8505 19.5147C29.752 20.6502 29.3276 21.7346 28.6271 22.6407C27.9266 23.5469 26.9789 24.2373 25.8951 24.6313C25.8951 24.5758 25.8951 24.4786 25.8951 24.4111V17.0504C25.8966 16.8669 25.8486 16.6863 25.7561 16.5271C25.6635 16.3679 25.5296 16.2358 25.3683 16.1445ZM28.0849 12.1103C28.037 12.0812 27.9532 12.0314 27.8931 11.9973L21.4356 8.31698C21.2746 8.22431 21.0916 8.17548 20.9052 8.17548C20.7189 8.17548 20.5359 8.22431 20.3749 8.31698L12.491 12.8086V9.69853C12.4901 9.68265 12.4932 9.6668 12.5 9.65238C12.5068 9.63796 12.5171 9.62543 12.53 9.61589L19.0578 5.9002C20.0579 5.33122 21.2015 5.05501 22.3548 5.10386C23.5082 5.15271 24.6236 5.52461 25.5705 6.17606C26.5175 6.82751 27.2568 7.73156 27.7021 8.78246C28.1474 9.83335 28.2802 10.9876 28.0849 12.1103ZM11.0071 17.6535L8.277 16.0985C8.26268 16.0914 8.25034 16.081 8.24108 16.0681C8.23183 16.0553 8.22593 16.0403 8.22393 16.0247V8.58572C8.22468 7.44636 8.55433 6.33078 9.17431 5.36957C9.79429 4.40835 10.6789 3.64127 11.7247 3.15811C12.7705 2.67495 13.9341 2.49571 15.0793 2.64136C16.2246 2.78701 17.3041 3.25153 18.1915 3.98054C18.1423 4.00703 18.0566 4.05372 17.9997 4.08778L11.5422 7.76814C11.3802 7.85902 11.2456 7.99085 11.1523 8.15007C11.0591 8.30928 11.0105 8.49014 11.0115 8.67404L11.0071 17.6535ZM12.4897 14.4993L16.0011 12.4982L19.5124 14.498V18.4988L16.0011 20.4986L12.4897 18.4988V14.4993Z" fill="white"/>
<path d="M51.2415 8.40909C51.2415 9.51941 51.031 10.464 50.6101 11.2429C50.1925 12.0218 49.6224 12.6167 48.8999 13.0277C48.1806 13.4354 47.3719 13.6392 46.4737 13.6392C45.5689 13.6392 44.7569 13.4337 44.0376 13.0227C43.3184 12.6117 42.75 12.0168 42.3324 11.2379C41.9148 10.459 41.706 9.5161 41.706 8.40909C41.706 7.29877 41.9148 6.35417 42.3324 5.57528C42.75 4.7964 43.3184 4.20312 44.0376 3.79545C44.7569 3.38447 45.5689 3.17898 46.4737 3.17898C47.3719 3.17898 48.1806 3.38447 48.8999 3.79545C49.6224 4.20312 50.1925 4.7964 50.6101 5.57528C51.031 6.35417 51.2415 7.29877 51.2415 8.40909ZM49.0589 8.40909C49.0589 7.68987 48.9512 7.08333 48.7358 6.58949C48.5237 6.09564 48.2237 5.72112 47.8359 5.46591C47.4482 5.2107 46.9941 5.0831 46.4737 5.0831C45.9534 5.0831 45.4993 5.2107 45.1115 5.46591C44.7237 5.72112 44.4221 6.09564 44.2067 6.58949C43.9946 7.08333 43.8885 7.68987 43.8885 8.40909C43.8885 9.12831 43.9946 9.73485 44.2067 10.2287C44.4221 10.7225 44.7237 11.0971 45.1115 11.3523C45.4993 11.6075 45.9534 11.7351 46.4737 11.7351C46.9941 11.7351 47.4482 11.6075 47.8359 11.3523C48.2237 11.0971 48.5237 10.7225 48.7358 10.2287C48.9512 9.73485 49.0589 9.12831 49.0589 8.40909ZM52.3063 16.3636V5.86364H54.3944V7.14631H54.4889C54.5817 6.94081 54.7159 6.73201 54.8916 6.51989C55.0705 6.30445 55.3026 6.12547 55.5876 5.98295C55.8759 5.83712 56.2339 5.7642 56.6615 5.7642C57.2183 5.7642 57.732 5.91004 58.2026 6.2017C58.6733 6.49006 59.0495 6.9259 59.3312 7.50923C59.6129 8.08925 59.7538 8.81676 59.7538 9.69176C59.7538 10.5436 59.6162 11.2628 59.3411 11.8494C59.0694 12.4328 58.6982 12.8752 58.2275 13.1768C57.7602 13.4751 57.2365 13.6243 56.6565 13.6243C56.2455 13.6243 55.8958 13.5563 55.6075 13.4205C55.3224 13.2846 55.0888 13.1139 54.9065 12.9084C54.7242 12.6996 54.585 12.4891 54.4889 12.277H54.4242V16.3636H52.3063ZM54.3795 9.68182C54.3795 10.1359 54.4425 10.532 54.5684 10.87C54.6944 11.2081 54.8767 11.4716 55.1153 11.6605C55.3539 11.8461 55.6439 11.9389 55.9853 11.9389C56.33 11.9389 56.6217 11.8445 56.8603 11.6555C57.099 11.4633 57.2796 11.1982 57.4022 10.8601C57.5282 10.5187 57.5911 10.1259 57.5911 9.68182C57.5911 9.241 57.5298 8.85322 57.4072 8.51847C57.2846 8.18371 57.1039 7.92187 56.8653 7.73295C56.6267 7.54403 56.3333 7.44957 55.9853 7.44957C55.6406 7.44957 55.349 7.54072 55.1103 7.72301C54.875 7.9053 54.6944 8.16383 54.5684 8.49858C54.4425 8.83333 54.3795 9.22775 54.3795 9.68182ZM64.1558 13.6491C63.3703 13.6491 62.6942 13.4901 62.1274 13.1719C61.564 12.8504 61.1298 12.3963 60.8249 11.8097C60.5199 11.2197 60.3675 10.522 60.3675 9.71662C60.3675 8.93111 60.5199 8.24171 60.8249 7.64844C61.1298 7.05516 61.559 6.5928 62.1125 6.26136C62.6693 5.92992 63.3223 5.7642 64.0713 5.7642C64.5751 5.7642 65.0441 5.84541 65.4783 6.00781C65.9158 6.1669 66.2969 6.4072 66.6217 6.72869C66.9499 7.05019 67.2051 7.45455 67.3874 7.94176C67.5697 8.42566 67.6608 8.99242 67.6608 9.64205V10.2237H61.2126V8.91122H65.6672C65.6672 8.6063 65.6009 8.33617 65.4683 8.10085C65.3358 7.86553 65.1518 7.68158 64.9165 7.54901C64.6845 7.41312 64.4144 7.34517 64.1061 7.34517C63.7846 7.34517 63.4996 7.41974 63.251 7.56889C63.0057 7.71473 62.8135 7.91193 62.6743 8.16051C62.5351 8.40578 62.4638 8.67921 62.4605 8.98082V10.2287C62.4605 10.6065 62.5301 10.933 62.6693 11.2081C62.8118 11.4832 63.0124 11.6953 63.2709 11.8445C63.5294 11.9936 63.836 12.0682 64.1906 12.0682C64.426 12.0682 64.6414 12.035 64.8369 11.9688C65.0325 11.9025 65.1999 11.803 65.3391 11.6705C65.4783 11.5379 65.5843 11.3755 65.6573 11.1832L67.6161 11.3125C67.5166 11.7831 67.3128 12.1941 67.0046 12.5455C66.6996 12.8935 66.3052 13.1652 65.8213 13.3608C65.3407 13.553 64.7856 13.6491 64.1558 13.6491ZM70.6708 9.08523V13.5H68.5529V5.86364H70.5714V7.21094H70.6609C70.8299 6.76681 71.1133 6.41548 71.511 6.15696C71.9087 5.89512 72.391 5.7642 72.9577 5.7642C73.488 5.7642 73.9504 5.88021 74.3448 6.11222C74.7392 6.34422 75.0458 6.67566 75.2646 7.10653C75.4833 7.53409 75.5927 8.04451 75.5927 8.63778V13.5H73.4748V9.01562C73.4781 8.5483 73.3588 8.18371 73.1168 7.92188C72.8749 7.65672 72.5418 7.52415 72.1175 7.52415C71.8325 7.52415 71.5806 7.58546 71.3619 7.7081C71.1464 7.83073 70.9774 8.00971 70.8548 8.24503C70.7354 8.47704 70.6741 8.7571 70.6708 9.08523ZM78.5666 13.5H76.2598L79.7747 3.31818H82.5489L86.0588 13.5H83.752L81.2016 5.64489H81.122L78.5666 13.5ZM78.4225 9.49787H83.8713V11.1783H78.4225V9.49787ZM88.947 3.31818V13.5H86.7943V3.31818H88.947ZM42.3125 27.4091C42.3125 26.1761 42.4766 25.041 42.8047 24.0036C43.1361 22.9661 43.6416 22.005 44.321 21.12H46.3445C46.0859 21.4482 45.8456 21.8492 45.6236 22.3232C45.4015 22.7938 45.2076 23.3108 45.0419 23.8743C44.8762 24.4377 44.7469 25.0211 44.6541 25.6243C44.5613 26.2242 44.5149 26.8191 44.5149 27.4091C44.5149 28.1946 44.5945 28.9884 44.7536 29.7905C44.916 30.5893 45.1347 31.3317 45.4098 32.0178C45.6882 32.7038 45.9998 33.2656 46.3445 33.7031H44.321C43.6416 32.8182 43.1361 31.857 42.8047 30.8196C42.4766 29.7822 42.3125 28.6454 42.3125 27.4091ZM56.1071 25.8828H53.9296C53.8898 25.6011 53.8086 25.3509 53.686 25.1321C53.5633 24.91 53.4059 24.7211 53.2137 24.5653C53.0214 24.4096 52.7994 24.2902 52.5475 24.2074C52.2989 24.1245 52.0288 24.0831 51.7371 24.0831C51.2101 24.0831 50.7511 24.214 50.36 24.4759C49.9689 24.7344 49.6656 25.1122 49.4502 25.6094C49.2347 26.1032 49.127 26.7031 49.127 27.4091C49.127 28.1349 49.2347 28.7448 49.4502 29.2386C49.6689 29.7325 49.9738 30.1054 50.3649 30.3572C50.756 30.6091 51.2084 30.7351 51.7222 30.7351C52.0105 30.7351 52.2773 30.697 52.5226 30.6207C52.7712 30.5445 52.9916 30.4335 53.1838 30.2876C53.3761 30.1385 53.5352 29.9579 53.6611 29.7457C53.7904 29.5336 53.8799 29.2917 53.9296 29.0199L56.1071 29.0298C56.0508 29.4972 55.9099 29.9479 55.6845 30.3821C55.4625 30.813 55.1625 31.1991 54.7847 31.5405C54.4102 31.8786 53.9627 32.147 53.4424 32.3459C52.9253 32.5414 52.3403 32.6392 51.6874 32.6392C50.7792 32.6392 49.9672 32.4337 49.2513 32.0227C48.5387 31.6117 47.9753 31.0168 47.561 30.2379C47.15 29.459 46.9445 28.5161 46.9445 27.4091C46.9445 26.2988 47.1533 25.3542 47.5709 24.5753C47.9885 23.7964 48.5553 23.2031 49.2712 22.7955C49.9871 22.3845 50.7925 22.179 51.6874 22.179C52.2773 22.179 52.8242 22.2618 53.328 22.4276C53.8351 22.5933 54.2842 22.8352 54.6753 23.1534C55.0664 23.4683 55.3846 23.8544 55.6299 24.3118C55.8784 24.7692 56.0375 25.2929 56.1071 25.8828ZM59.2389 28.0852V32.5H57.121V22.3182H59.1793V26.2109H59.2688C59.4411 25.7602 59.7195 25.4072 60.104 25.152C60.4885 24.8935 60.9707 24.7642 61.5507 24.7642C62.081 24.7642 62.5434 24.8802 62.9378 25.1122C63.3355 25.3409 63.6438 25.6707 63.8625 26.1016C64.0846 26.5291 64.1939 27.0412 64.1906 27.6378V32.5H62.0727V28.0156C62.076 27.545 61.9567 27.1787 61.7148 26.9169C61.4761 26.6551 61.1414 26.5241 60.7105 26.5241C60.4222 26.5241 60.167 26.5855 59.9449 26.7081C59.7261 26.8307 59.5538 27.0097 59.4278 27.245C59.3052 27.477 59.2422 27.7571 59.2389 28.0852ZM67.5449 32.6442C67.0577 32.6442 66.6235 32.5597 66.2424 32.3906C65.8612 32.2183 65.5596 31.9647 65.3375 31.63C65.1188 31.2919 65.0094 30.871 65.0094 30.3672C65.0094 29.9429 65.0873 29.5866 65.2431 29.2983C65.3988 29.0099 65.611 28.7779 65.8794 28.6023C66.1479 28.4266 66.4528 28.294 66.7942 28.2045C67.1389 28.1151 67.5002 28.0521 67.878 28.0156C68.3221 27.9692 68.6801 27.9261 68.9519 27.8864C69.2237 27.8433 69.4209 27.7803 69.5435 27.6974C69.6661 27.6146 69.7274 27.492 69.7274 27.3295V27.2997C69.7274 26.9848 69.628 26.7412 69.4291 26.5689C69.2336 26.3965 68.9552 26.3104 68.5939 26.3104C68.2128 26.3104 67.9095 26.3949 67.6841 26.5639C67.4587 26.7296 67.3096 26.9384 67.2367 27.1903L65.2779 27.0312C65.3773 26.5672 65.5729 26.1662 65.8645 25.8281C66.1562 25.4867 66.5324 25.2249 66.9931 25.0426C67.4571 24.857 67.994 24.7642 68.6039 24.7642C69.0281 24.7642 69.4341 24.8139 69.8219 24.9134C70.213 25.0128 70.5594 25.1669 70.861 25.3757C71.1659 25.5845 71.4062 25.853 71.5818 26.1811C71.7575 26.5059 71.8453 26.8954 71.8453 27.3494V32.5H69.8368V31.4411H69.7772C69.6545 31.6797 69.4905 31.8902 69.285 32.0724C69.0795 32.2514 68.8326 32.3923 68.5442 32.495C68.2559 32.5945 67.9228 32.6442 67.5449 32.6442ZM68.1514 31.1825C68.463 31.1825 68.7381 31.1212 68.9767 30.9986C69.2154 30.8726 69.4026 30.7036 69.5385 30.4915C69.6744 30.2794 69.7424 30.0391 69.7424 29.7706V28.9602C69.6761 29.0033 69.5849 29.0431 69.4689 29.0795C69.3562 29.1127 69.2286 29.1442 69.0861 29.174C68.9436 29.2005 68.8011 29.2254 68.6586 29.2486C68.516 29.2685 68.3868 29.2867 68.2708 29.3033C68.0222 29.3397 67.8051 29.3977 67.6195 29.4773C67.4339 29.5568 67.2897 29.6645 67.187 29.8004C67.0842 29.933 67.0328 30.0987 67.0328 30.2976C67.0328 30.5859 67.1372 30.8063 67.3461 30.9588C67.5582 31.108 67.8266 31.1825 68.1514 31.1825ZM77.0602 24.8636V26.4545H72.4615V24.8636H77.0602ZM73.5056 23.0341H75.6235V30.1534C75.6235 30.349 75.6533 30.5014 75.7129 30.6108C75.7726 30.7169 75.8555 30.7914 75.9615 30.8345C76.0709 30.8776 76.1968 30.8991 76.3394 30.8991C76.4388 30.8991 76.5382 30.8909 76.6377 30.8743C76.7371 30.8544 76.8133 30.8395 76.8664 30.8295L77.1994 32.4055C77.0934 32.4387 76.9442 32.4768 76.752 32.5199C76.5598 32.5663 76.3261 32.5945 76.051 32.6044C75.5406 32.6243 75.0931 32.5563 74.7087 32.4006C74.3275 32.2448 74.0309 32.0028 73.8188 31.6747C73.6066 31.3466 73.5022 30.9323 73.5056 30.4318V23.0341ZM84.7411 25.6094C84.6714 25.3674 84.5737 25.1536 84.4477 24.968C84.3218 24.7791 84.1677 24.62 83.9854 24.4908C83.8064 24.3582 83.6009 24.2571 83.3689 24.1875C83.1402 24.1179 82.8866 24.0831 82.6082 24.0831C82.0879 24.0831 81.6305 24.2124 81.2361 24.4709C80.845 24.7294 80.5401 25.1056 80.3213 25.5994C80.1026 26.09 79.9932 26.6899 79.9932 27.3991C79.9932 28.1084 80.1009 28.7116 80.3163 29.2088C80.5318 29.706 80.8367 30.0855 81.2311 30.3473C81.6255 30.6058 82.0912 30.7351 82.6281 30.7351C83.1153 30.7351 83.5313 30.6489 83.876 30.4766C84.224 30.3009 84.4892 30.054 84.6714 29.7358C84.8571 29.4176 84.9499 29.0414 84.9499 28.6072L85.3874 28.6719H82.7624V27.0511H87.023V28.3338C87.023 29.2287 86.8341 29.9976 86.4562 30.6406C86.0784 31.2803 85.558 31.7741 84.8952 32.1222C84.2323 32.4669 83.4733 32.6392 82.6182 32.6392C81.6636 32.6392 80.8251 32.4287 80.1026 32.0078C79.38 31.5836 78.8166 30.982 78.4122 30.2031C78.0112 29.4209 77.8107 28.4929 77.8107 27.419C77.8107 26.5937 77.93 25.858 78.1686 25.2116C78.4106 24.562 78.7486 24.0118 79.1828 23.5611C79.617 23.1103 80.1224 22.7673 80.6991 22.532C81.2759 22.2966 81.9006 22.179 82.5734 22.179C83.1501 22.179 83.6871 22.2635 84.1842 22.4325C84.6814 22.5982 85.1222 22.8336 85.5067 23.1385C85.8945 23.4434 86.211 23.8063 86.4562 24.2273C86.7015 24.6449 86.8589 25.1056 86.9286 25.6094H84.7411ZM88.15 32.5V22.3182H92.1671C92.9393 22.3182 93.5972 22.4657 94.1408 22.7607C94.6844 23.0523 95.0986 23.4583 95.3837 23.9787C95.672 24.4957 95.8162 25.0923 95.8162 25.7685C95.8162 26.4446 95.6704 27.0412 95.3787 27.5582C95.087 28.0753 94.6645 28.478 94.111 28.7663C93.5608 29.0547 92.8946 29.1989 92.1124 29.1989H89.552V27.4737H91.7644C92.1787 27.4737 92.5201 27.4025 92.7885 27.2599C93.0603 27.1141 93.2625 26.9136 93.3951 26.6584C93.5309 26.3999 93.5989 26.1032 93.5989 25.7685C93.5989 25.4304 93.5309 25.1354 93.3951 24.8835C93.2625 24.6283 93.0603 24.4311 92.7885 24.2919C92.5167 24.1494 92.172 24.0781 91.7544 24.0781H90.3027V32.5H88.15ZM96.3367 24.093V22.3182H104.699V24.093H101.582V32.5H99.4539V24.093H96.3367ZM109.116 27.4091C109.116 28.6454 108.95 29.7822 108.619 30.8196C108.291 31.857 107.787 32.8182 107.107 33.7031H105.084C105.342 33.375 105.583 32.974 105.805 32.5C106.027 32.026 106.221 31.509 106.386 30.9489C106.552 30.3854 106.681 29.8021 106.774 29.1989C106.867 28.5956 106.913 27.9991 106.913 27.4091C106.913 26.6236 106.832 25.8314 106.67 25.0327C106.511 24.2306 106.292 23.4882 106.014 22.8054C105.739 22.1193 105.429 21.5575 105.084 21.12H107.107C107.787 22.005 108.291 22.9661 108.619 24.0036C108.95 25.041 109.116 26.1761 109.116 27.4091Z" fill="white"/>
</svg>
