<svg width="152" height="32" viewBox="0 0 152 32" fill="none" xmlns="http://www.w3.org/2000/svg">
<rect x="2" y="2" width="28" height="28" fill="white"/>
<rect x="3" y="3" width="26" height="26" fill="#261302"/>
<path d="M11.9701 19.1606L11.0339 22.874C11.0145 22.9754 10.9758 23 10.8582 23H9.1227C9.00654 23 8.98718 22.9594 9.00654 22.816L12.3614 10.501C12.4195 10.2764 12.4596 10.0823 12.479 9.46942C12.479 9.38829 12.5177 9.34627 12.5772 9.34627H15.0539C15.1314 9.34627 15.1715 9.36655 15.1908 9.46942L18.955 22.8363C18.9744 22.9377 18.955 23 18.8569 23H16.907C16.8102 23 16.7507 22.9754 16.7314 22.8942L15.7564 19.1606H11.9701ZM15.2655 17.1482L13.8619 11.3283L12.4776 17.1482H15.2655ZM20.5827 10.2663C20.5827 9.46942 21.1096 9 21.7914 9C22.5132 9 23 9.51144 23 10.2663C23 11.0834 22.4925 11.5325 21.772 11.5325C21.0695 11.5325 20.5827 11.0834 20.5827 10.2663ZM20.7155 13.0813C20.7155 12.9785 20.7542 12.9379 20.8524 12.9379H22.7068C22.805 12.9379 22.8437 12.9785 22.8437 13.0813V22.8566C22.8437 22.9594 22.8244 23 22.7068 23H20.8717C20.7542 23 20.7155 22.9391 20.7155 22.8363V13.0813Z" fill="white"/>
<path d="M44.1943 8.47412H46.8896V24.5H44.1943V8.47412ZM50.7979 7.04785H53.4595V24.5H50.7979V7.04785ZM57.1992 7.04785H59.8608V24.5H57.1992V7.04785ZM63.6006 12.6519H66.2622V20.7266C66.2622 21.041 66.2809 21.3068 66.3184 21.5239C66.3633 21.741 66.4531 21.9207 66.5879 22.063C66.7227 22.1978 66.9173 22.2988 67.1719 22.3662C67.4264 22.4261 67.7671 22.4561 68.1938 22.4561C68.6431 22.4561 69.0511 22.4336 69.418 22.3887C69.7848 22.3363 70.0993 22.2801 70.3613 22.2202C70.6683 22.1453 70.9453 22.063 71.1924 21.9731V12.6519H73.854V24.5H71.8999L71.5854 23.624C71.1662 23.8561 70.7132 24.062 70.2266 24.2417C69.8073 24.3914 69.3206 24.5299 68.7666 24.6572C68.2201 24.7845 67.6398 24.8481 67.0259 24.8481C65.8654 24.8481 65.0044 24.5412 64.4429 23.9272C63.8813 23.3058 63.6006 22.34 63.6006 21.0298V12.6519ZM77.0322 22.2202C77.3617 22.2951 77.7285 22.3625 78.1328 22.4224C78.4772 22.4748 78.8815 22.5197 79.3457 22.5571C79.8174 22.5946 80.334 22.6133 80.8955 22.6133C81.5094 22.6133 81.9961 22.5908 82.3555 22.5459C82.7148 22.501 82.9844 22.4261 83.1641 22.3213C83.3512 22.209 83.471 22.0592 83.5234 21.8721C83.5758 21.6849 83.6021 21.4491 83.6021 21.1646C83.6021 21.0148 83.5908 20.88 83.5684 20.7603C83.5534 20.633 83.5085 20.5207 83.4336 20.4233C83.3662 20.3185 83.2614 20.2324 83.1191 20.165C82.9844 20.0902 82.8009 20.034 82.5688 19.9966L80.0869 19.5361C79.5179 19.4388 79.0387 19.3078 78.6494 19.1431C78.2601 18.9784 77.9456 18.7612 77.7061 18.4917C77.474 18.2147 77.3055 17.8778 77.2007 17.481C77.1034 17.0767 77.0547 16.5863 77.0547 16.0098C77.0547 14.7669 77.4665 13.8423 78.29 13.2358C79.1211 12.6219 80.304 12.3149 81.8389 12.3149C82.3779 12.3149 82.8721 12.3486 83.3213 12.416C83.778 12.4759 84.1748 12.547 84.5117 12.6294C84.901 12.7192 85.2567 12.8203 85.5786 12.9326V14.8418C85.2192 14.7819 84.8449 14.7295 84.4556 14.6846C84.1187 14.6471 83.7406 14.6097 83.3213 14.5723C82.9095 14.5348 82.4902 14.5161 82.0635 14.5161C81.5768 14.5161 81.1725 14.5386 80.8506 14.5835C80.5286 14.6209 80.2741 14.6883 80.0869 14.7856C79.8997 14.883 79.7687 15.0103 79.6938 15.1675C79.619 15.3172 79.5815 15.5081 79.5815 15.7402C79.5815 15.9199 79.5965 16.0809 79.6265 16.2231C79.6564 16.3654 79.7201 16.4927 79.8174 16.605C79.9147 16.7173 80.0495 16.8146 80.2217 16.897C80.3939 16.9793 80.626 17.0467 80.918 17.0991L83.4897 17.582C83.9914 17.6794 84.4144 17.8066 84.7588 17.9639C85.1107 18.1211 85.3952 18.3345 85.6123 18.604C85.8294 18.8735 85.9867 19.2179 86.084 19.6372C86.1813 20.049 86.23 20.5581 86.23 21.1646C86.23 21.741 86.1701 22.2576 86.0503 22.7144C85.938 23.1711 85.7059 23.5566 85.354 23.8711C85.0021 24.1855 84.5042 24.4251 83.8604 24.5898C83.2165 24.762 82.3667 24.8481 81.311 24.8481C80.7271 24.8481 80.1768 24.807 79.6602 24.7246C79.1436 24.6497 78.6906 24.5636 78.3013 24.4663C77.8446 24.354 77.4215 24.2267 77.0322 24.0845V22.2202ZM90.0596 14.8643H88.3076V12.6519H90.0596V10.1475L92.7212 9.55225V12.6519H95.7085V14.8643H92.7212V21.2319C92.7212 21.509 92.7399 21.7373 92.7773 21.917C92.8223 22.0967 92.8971 22.2427 93.002 22.355C93.1143 22.4598 93.2677 22.5347 93.4624 22.5796C93.6646 22.617 93.9229 22.6357 94.2373 22.6357C94.5293 22.6357 94.7913 22.632 95.0234 22.6245C95.263 22.6095 95.4652 22.5946 95.6299 22.5796C95.8245 22.5646 95.9967 22.5459 96.1465 22.5234V24.2979C95.8844 24.4027 95.6037 24.4963 95.3042 24.5786C95.0422 24.646 94.7352 24.7059 94.3833 24.7583C94.0314 24.8182 93.6458 24.8481 93.2266 24.8481C92.6426 24.8481 92.1484 24.792 91.7441 24.6797C91.3473 24.5674 91.0216 24.3989 90.7671 24.1743C90.52 23.9422 90.3403 23.654 90.228 23.3096C90.1157 22.9577 90.0596 22.5496 90.0596 22.0854V14.8643ZM98.9316 12.6519H101.234L101.391 13.9434C101.975 13.5615 102.63 13.2471 103.356 13C104.083 12.7529 104.899 12.6069 105.805 12.562L105.782 15.3247C104.846 15.3397 104.034 15.3883 103.345 15.4707C102.664 15.5456 102.08 15.6803 101.593 15.875V24.5H98.9316V12.6519ZM107.658 21.1421C107.658 20.4683 107.755 19.8993 107.95 19.4351C108.152 18.9709 108.421 18.5965 108.758 18.312C109.103 18.0275 109.503 17.8216 109.96 17.6943C110.424 17.5671 110.922 17.5034 111.454 17.5034C111.993 17.5034 112.479 17.5334 112.914 17.5933C113.355 17.6532 113.737 17.7205 114.059 17.7954C114.426 17.8778 114.759 17.9714 115.059 18.0762V16.9756C115.059 16.6986 115.047 16.4665 115.025 16.2793C115.01 16.0846 114.98 15.9162 114.935 15.7739C114.89 15.6317 114.826 15.5119 114.744 15.4146C114.669 15.3172 114.576 15.2236 114.463 15.1338C114.224 14.9616 113.894 14.8381 113.475 14.7632C113.056 14.6883 112.509 14.6509 111.835 14.6509C111.409 14.6509 110.993 14.6659 110.589 14.6958C110.192 14.7183 109.836 14.7482 109.522 14.7856C109.155 14.8231 108.807 14.8643 108.478 14.9092V13.0449C108.777 12.9251 109.148 12.8166 109.589 12.7192C109.964 12.6369 110.432 12.562 110.993 12.4946C111.555 12.4198 112.221 12.3823 112.992 12.3823C113.509 12.3823 113.965 12.4048 114.362 12.4497C114.767 12.4871 115.122 12.5545 115.429 12.6519C115.736 12.7492 116.006 12.8765 116.238 13.0337C116.477 13.1909 116.691 13.3856 116.878 13.6177C117.035 13.8123 117.166 14.0182 117.271 14.2354C117.376 14.4525 117.462 14.707 117.529 14.999C117.597 15.291 117.642 15.6279 117.664 16.0098C117.694 16.3841 117.709 16.8221 117.709 17.3237V24.5H115.452L115.25 23.624C114.92 23.8561 114.557 24.062 114.16 24.2417C113.816 24.3914 113.411 24.5299 112.947 24.6572C112.491 24.7845 111.985 24.8481 111.431 24.8481C110.757 24.8481 110.181 24.7808 109.702 24.646C109.222 24.5112 108.829 24.2979 108.522 24.0059C108.223 23.7139 108.002 23.332 107.86 22.8604C107.725 22.3887 107.658 21.8159 107.658 21.1421ZM110.387 21.1421C110.387 21.4715 110.428 21.7336 110.51 21.9282C110.593 22.1229 110.712 22.2726 110.87 22.3774C111.027 22.4748 111.218 22.5384 111.442 22.5684C111.674 22.5983 111.937 22.6133 112.229 22.6133C112.61 22.6133 112.97 22.5796 113.307 22.5122C113.651 22.4373 113.954 22.3587 114.216 22.2764C114.516 22.179 114.797 22.0667 115.059 21.9395V19.8843C114.819 19.8394 114.561 19.7982 114.284 19.7607C114.044 19.7233 113.771 19.6934 113.464 19.6709C113.164 19.641 112.846 19.626 112.509 19.626C112.135 19.626 111.813 19.6447 111.543 19.6821C111.281 19.7121 111.064 19.7832 110.892 19.8955C110.72 20.0003 110.593 20.1538 110.51 20.356C110.428 20.5506 110.387 20.8127 110.387 21.1421ZM122.336 14.8643H120.584V12.6519H122.336V10.1475L124.998 9.55225V12.6519H127.985V14.8643H124.998V21.2319C124.998 21.509 125.016 21.7373 125.054 21.917C125.099 22.0967 125.174 22.2427 125.278 22.355C125.391 22.4598 125.544 22.5347 125.739 22.5796C125.941 22.617 126.199 22.6357 126.514 22.6357C126.806 22.6357 127.068 22.632 127.3 22.6245C127.539 22.6095 127.742 22.5946 127.906 22.5796C128.101 22.5646 128.273 22.5459 128.423 22.5234V24.2979C128.161 24.4027 127.88 24.4963 127.581 24.5786C127.319 24.646 127.012 24.7059 126.66 24.7583C126.308 24.8182 125.922 24.8481 125.503 24.8481C124.919 24.8481 124.425 24.792 124.021 24.6797C123.624 24.5674 123.298 24.3989 123.043 24.1743C122.796 23.9422 122.617 23.654 122.504 23.3096C122.392 22.9577 122.336 22.5496 122.336 22.0854V14.8643ZM130.399 18.5703C130.399 17.5671 130.508 16.6799 130.725 15.9087C130.942 15.13 131.279 14.4749 131.736 13.9434C132.2 13.4118 132.784 13.0075 133.488 12.7305C134.192 12.4535 135.034 12.3149 136.015 12.3149C136.995 12.3149 137.838 12.4535 138.542 12.7305C139.253 13.0075 139.837 13.4118 140.293 13.9434C140.75 14.4749 141.087 15.13 141.304 15.9087C141.521 16.6799 141.63 17.5671 141.63 18.5703C141.63 19.5736 141.521 20.4683 141.304 21.2544C141.087 22.033 140.75 22.6882 140.293 23.2197C139.837 23.7513 139.253 24.1556 138.542 24.4326C137.838 24.7096 136.995 24.8481 136.015 24.8481C135.034 24.8481 134.192 24.7096 133.488 24.4326C132.784 24.1556 132.2 23.7513 131.736 23.2197C131.279 22.6882 130.942 22.033 130.725 21.2544C130.508 20.4683 130.399 19.5736 130.399 18.5703ZM136.015 22.5908C136.606 22.5908 137.085 22.5047 137.452 22.3325C137.819 22.1528 138.104 21.8945 138.306 21.5576C138.508 21.2132 138.643 20.7939 138.71 20.2998C138.785 19.7982 138.822 19.2217 138.822 18.5703C138.822 17.9264 138.785 17.3574 138.71 16.8633C138.643 16.3617 138.508 15.9424 138.306 15.6055C138.104 15.2611 137.819 15.0028 137.452 14.8306C137.085 14.6509 136.606 14.561 136.015 14.561C135.431 14.561 134.955 14.6509 134.588 14.8306C134.222 15.0028 133.933 15.2611 133.724 15.6055C133.521 15.9424 133.383 16.3617 133.308 16.8633C133.241 17.3574 133.207 17.9264 133.207 18.5703C133.207 19.2217 133.241 19.7982 133.308 20.2998C133.383 20.7939 133.521 21.2132 133.724 21.5576C133.933 21.8945 134.222 22.1528 134.588 22.3325C134.955 22.5047 135.431 22.5908 136.015 22.5908ZM144.55 12.6519H146.852L147.009 13.9434C147.593 13.5615 148.248 13.2471 148.975 13C149.701 12.7529 150.517 12.6069 151.423 12.562L151.4 15.3247C150.465 15.3397 149.652 15.3883 148.963 15.4707C148.282 15.5456 147.698 15.6803 147.211 15.875V24.5H144.55V12.6519Z" fill="white"/>
</svg>
