<svg width="200" height="120" viewBox="0 0 200 120" fill="none" xmlns="http://www.w3.org/2000/svg">
<path d="M97.4667 75.1647C95.0963 73.8786 93.2297 72.0946 91.8722 69.8128C90.5147 67.5309 89.8359 64.9535 89.8359 62.0753C89.8359 59.1971 90.5147 56.6196 91.8722 54.3378C93.2297 52.0559 95.0963 50.272 97.4667 48.9858C99.8372 47.6997 102.506 47.0566 105.468 47.0566C107.962 47.0566 110.219 47.4974 112.235 48.3843C114.25 49.2711 115.942 50.5416 117.315 52.2011L113.037 56.184C111.088 53.9177 108.676 52.782 105.797 52.782C104.013 52.782 102.424 53.1761 101.025 53.9644C99.6264 54.7527 98.5363 55.8521 97.7547 57.2627C96.9731 58.6733 96.5823 60.2757 96.5823 62.0753C96.5823 63.8748 96.9731 65.4773 97.7547 66.8879C98.5363 68.2985 99.6264 69.3979 101.025 70.1862C102.424 70.9744 104.013 71.3686 105.797 71.3686C108.676 71.3686 111.088 70.2225 113.037 67.9251L117.315 71.9079C115.942 73.5934 114.245 74.8795 112.214 75.7663C110.183 76.6531 107.921 77.0939 105.427 77.0939C102.491 77.0939 99.8372 76.4509 97.4667 75.1647Z" fill="white"/>
<path d="M120.773 47.5527H127.438V76.5943H120.773V47.5527Z" fill="white"/>
<path d="M159.438 76.5943L159.397 59.1694L150.923 73.5242H147.92L139.487 59.5428V76.5943H133.234V47.5527H138.747L149.524 65.6L160.138 47.5527H165.609L165.691 76.5943H159.438Z" fill="white"/>
<path d="M190.455 70.3711H177.086L174.536 76.5943H167.707L180.542 47.5527H187.123L199.999 76.5943H193.006L190.455 70.3711ZM188.358 65.2681L183.791 54.1493L179.225 65.2681H188.358Z" fill="white"/>
<path d="M26.7227 66.1445V85.7061H46.2882L26.7227 66.1445Z" fill="white"/>
<path d="M23.4375 34.3711C10.3201 35.4342 0 46.4959 0 60.0003C0 73.5046 10.3201 84.5663 23.4375 85.6295V34.3711Z" fill="white"/>
<path d="M50.9263 59.7043L26.7227 34.293V61.6854L50.227 85.1883H76.5183V34.4434L50.9263 59.7043Z" fill="white"/>
</svg>
