<svg width="128" height="84" viewBox="0 0 128 84" fill="none" xmlns="http://www.w3.org/2000/svg">
<path d="M24.7363 27.9531C25.1028 27.9531 25.6901 27.9686 26.0371 27.9883C26.384 28.012 26.9442 28.064 27.2793 28.1074C27.6144 28.1508 28.1939 28.2453 28.5605 28.3203C28.9269 28.3953 29.38 28.4936 29.5654 28.541C29.7506 28.5884 30.1409 28.6993 30.4326 28.7861C30.7242 28.8729 31.213 29.0388 31.5166 29.1533C31.8201 29.2638 32.2818 29.4529 32.542 29.5635C32.8021 29.6779 33.3344 29.9344 33.7246 30.1357C34.1147 30.337 34.6188 30.6176 34.8477 30.7559C35.0763 30.894 35.5022 31.1669 35.7939 31.3643C36.0857 31.5616 36.5396 31.8885 36.7998 32.0898C37.06 32.2912 37.4936 32.647 37.7656 32.876C38.0377 33.109 38.5613 33.5988 38.9277 33.9697C39.2983 34.3369 39.7754 34.846 39.9883 35.0947C40.2011 35.3434 40.572 35.7966 40.8125 36.1006C41.0489 36.4044 41.301 36.7679 41.3721 36.9102C41.443 37.0522 41.5415 37.301 41.5928 37.4629C41.6756 37.7234 41.6875 37.834 41.6875 38.3906C41.6875 38.8722 41.6684 39.0819 41.6172 39.2793C41.5777 39.4215 41.4666 39.6973 41.3721 39.8906C41.2815 40.0878 41.1162 40.352 41.0098 40.4863C40.9073 40.6166 40.7218 40.8143 40.6035 40.9248C40.4853 41.0314 40.2998 41.1819 40.1895 41.2529C40.083 41.3279 39.8665 41.4417 39.7168 41.5127C39.567 41.5798 39.3265 41.6715 39.1846 41.7109C38.9756 41.7702 38.8016 41.7852 38.2773 41.7852C37.6549 41.7812 37.6115 41.7776 37.2529 41.6553C37.0481 41.5882 36.7409 41.4502 36.5752 41.3516C36.4057 41.2529 36.1488 41.0629 36.0068 40.9287C35.861 40.7905 35.6678 40.5813 35.5771 40.4629C35.4865 40.3444 35.3367 40.0994 35.2461 39.9219C35.1594 39.7403 35.0493 39.4644 35.002 39.3105C34.9586 39.1408 34.9152 38.8405 34.8994 38.5879C34.8837 38.288 34.8951 38.0512 34.9385 37.8184C34.97 37.6329 35.0492 37.3407 35.1162 37.167C35.1832 36.9933 35.3214 36.7242 35.416 36.5742C35.5144 36.4244 35.5967 36.2863 35.5967 36.2705C35.5954 36.2492 35.4424 36.029 35.2539 35.7773C35.0687 35.5208 34.746 35.1061 34.541 34.8574C34.336 34.6087 33.8627 34.0995 33.4922 33.7324C33.1217 33.3614 32.5779 32.8677 32.2861 32.6348C31.9945 32.398 31.6043 32.1059 31.4189 31.9795C31.2337 31.8532 30.914 31.6478 30.709 31.5215C30.5041 31.3952 30.1495 31.2024 29.9209 31.0879C29.6923 30.9734 29.2934 30.7912 29.0332 30.6807C28.773 30.5701 28.3199 30.4081 28.0283 30.3213C27.7368 30.2345 27.3824 30.1361 27.2402 30.1045C27.0983 30.069 26.7352 30.0054 26.4316 29.958C26.1044 29.9106 25.5839 29.8673 25.1504 29.8555C24.7247 29.8436 24.2241 29.8523 23.9482 29.8799C23.6881 29.9036 23.2544 29.9624 22.9824 30.0059C22.7105 30.0493 22.214 30.1679 21.8789 30.2666C21.5438 30.3613 21.0822 30.5147 20.8535 30.6055C20.625 30.6962 20.1641 30.9055 19.8291 31.0752C19.494 31.241 19.0324 31.4985 18.8037 31.6406C18.5751 31.7867 18.2515 32.0036 18.0781 32.126C17.9086 32.2484 17.582 32.5011 17.3496 32.6865C17.121 32.8681 16.6119 33.3416 16.2217 33.7324C15.8275 34.1232 15.362 34.6208 15.1807 34.8379C15.0032 35.055 14.7076 35.4302 14.5303 35.667C14.3529 35.9078 14.0814 36.2868 13.9277 36.5156C13.774 36.7446 13.521 37.1428 13.3633 37.4033C13.2056 37.6639 12.9023 38.2174 12.6895 38.6279C12.4768 39.0421 12.213 39.5822 12.1025 39.8311C11.9883 40.0797 11.8145 40.4982 11.708 40.7588C11.6055 41.0193 11.4201 41.5169 11.2979 41.8643C11.1757 42.2115 10.9864 42.8075 10.876 43.1865C10.7656 43.5655 10.5928 44.2491 10.4863 44.707C10.3799 45.1648 10.2418 45.8553 10.1748 46.2461C10.1117 46.6369 10.0286 47.1508 9.99707 47.3916C9.96161 47.6324 9.91043 48.0819 9.87891 48.3975C9.84737 48.7133 9.80006 49.3535 9.77246 49.8193C9.74488 50.3523 9.73326 51.1575 9.74902 51.9902C9.76085 52.7166 9.79178 53.5536 9.81543 53.8457C9.83515 54.1379 9.89118 54.6827 9.93848 55.0498C9.98186 55.417 10.0804 56.092 10.1553 56.5498C10.2302 57.0077 10.3799 57.7502 10.4824 58.208C10.5889 58.6659 10.7733 59.3767 10.8955 59.7871C11.0138 60.1977 11.2032 60.7859 11.3096 61.0898C11.416 61.3938 11.5938 61.8634 11.7002 62.1357C11.8106 62.4081 11.9882 62.8344 12.1025 63.083C12.213 63.3318 12.4766 63.8766 12.6895 64.2871C12.9023 64.6977 13.1978 65.2425 13.3516 65.4912C13.5014 65.7399 13.7544 66.1381 13.916 66.3789C14.0737 66.6197 14.3489 67.0072 14.5303 67.248C14.7077 67.4889 14.9993 67.8601 15.1807 68.0771C15.362 68.2943 15.8276 68.7909 16.2178 69.1816C16.6118 69.5762 17.1633 70.0775 17.4434 70.3027C17.7232 70.5277 18.1888 70.8632 18.4688 71.0527C18.7486 71.2383 19.1669 71.4957 19.3955 71.6221C19.6242 71.7484 20.0454 71.9577 20.333 72.0879C20.6168 72.2142 21.1142 72.4071 21.4375 72.5137C21.7568 72.6202 22.3277 72.7746 22.7061 72.8496C23.0845 72.9286 23.4438 72.9912 23.6133 72.9912V51.3584L33.2637 51.3701C42.4367 51.378 42.9218 51.3821 43.1465 51.4492C43.2766 51.4887 43.4891 51.5639 43.6191 51.6191C43.7491 51.6704 43.9501 51.7727 44.0645 51.8438C44.1827 51.9109 44.3884 52.0691 44.5264 52.1875C44.6643 52.306 44.8692 52.5191 44.9795 52.6611C45.0938 52.8032 45.2512 53.052 45.334 53.2139C45.4167 53.3756 45.5229 53.6438 45.5742 53.8057C45.657 54.0622 45.6689 54.1811 45.6689 54.7139C45.6689 55.1678 45.6451 55.4485 45.582 55.7998C45.5347 56.0604 45.4323 56.5773 45.3535 56.9443C45.2747 57.3114 45.1288 57.9073 45.0342 58.2666C44.9356 58.6258 44.7666 59.1947 44.6562 59.5303C44.5459 59.8657 44.345 60.4261 44.2109 60.7734C44.0769 61.1208 43.8518 61.654 43.7178 61.958C43.5838 62.2619 43.3316 62.7866 43.1582 63.1221C42.9809 63.4574 42.7327 63.9193 42.6025 64.1484C42.4725 64.3773 42.2242 64.7843 42.0508 65.0566C41.8813 65.329 41.6127 65.7282 41.459 65.9453C41.3013 66.1625 41.025 66.5337 40.8438 66.7744C40.6623 67.0153 40.3078 67.4493 40.0557 67.7412C39.8034 68.0333 39.2866 68.5859 38.9082 68.9648C38.5298 69.3477 38.041 69.8096 37.8242 69.999C37.6074 70.1846 37.1815 70.5278 36.8779 70.7646C36.5744 71.0015 36.0856 71.3573 35.7939 71.5547C35.5022 71.7521 35.0762 72.024 34.8477 72.1621C34.619 72.3003 34.1853 72.5453 33.8818 72.7031C33.5784 72.8649 33.1021 73.0983 32.8184 73.2285C32.5346 73.3548 32.0575 73.5564 31.7539 73.6748C31.4504 73.7932 30.9452 73.9706 30.6299 74.0693C30.3145 74.168 29.8451 74.302 29.585 74.3691C29.325 74.4323 28.9433 74.523 28.7383 74.5664C28.5333 74.6098 28.2059 74.6735 28.0088 74.7051C27.8117 74.7406 27.3346 74.7993 26.9443 74.8467C26.5553 74.89 26.2053 74.9256 26.168 74.9258C26.101 74.9258 26.0968 75.1038 26.085 78.0566C26.0731 81.1582 26.073 81.1867 25.9863 81.4707C25.939 81.6247 25.8482 81.8657 25.7891 82.0039C25.726 82.1381 25.5995 82.3628 25.5049 82.5049C25.4103 82.647 25.2258 82.8687 25.0957 83.0029C24.9617 83.1332 24.7483 83.3106 24.6182 83.4014C24.4881 83.4882 24.2871 83.6068 24.1768 83.666C24.0624 83.7213 23.8141 83.8158 23.625 83.8711C23.3964 83.9342 23.1362 83.9774 22.8643 83.9932C22.5688 84.0089 22.344 83.9975 22.0762 83.9502C21.8633 83.9107 21.5631 83.8241 21.3857 83.7451C21.2123 83.6701 20.9718 83.5515 20.8535 83.4805C20.7352 83.4133 20.4716 83.1838 20.2627 82.9785C19.9829 82.6983 19.8449 82.5249 19.7188 82.2881C19.6281 82.1144 19.5131 81.8733 19.4697 81.7549C19.4225 81.6364 19.3635 81.4077 19.332 81.2539C19.3005 81.0961 19.2764 80.7922 19.2764 80.583C19.2764 80.362 19.3082 80.0422 19.3516 79.8408C19.391 79.6475 19.4857 79.3513 19.5605 79.1895C19.6354 79.0277 19.7542 78.8069 19.8291 78.6963C19.9001 78.5897 20.0498 78.3997 20.1562 78.2812C20.2627 78.1628 20.4792 77.9689 20.6328 77.8506C20.7866 77.7361 21.0117 77.5904 21.1299 77.5312C21.2481 77.4721 21.4607 77.3813 21.6025 77.334C21.7443 77.2867 21.9491 77.2317 22.0557 77.2119C22.166 77.1922 22.4578 77.1758 22.7061 77.1758C22.9544 77.1758 23.2624 77.1994 23.6133 77.2744V76.1025C23.6133 75.009 23.609 74.9258 23.5459 74.9258C23.5053 74.9256 23.1628 74.89 22.7852 74.8467C22.4067 74.8033 21.8745 74.7329 21.6025 74.6895C21.3306 74.646 20.7829 74.5274 20.3809 74.4287C19.9789 74.334 19.3955 74.172 19.0801 74.0693C18.7647 73.9706 18.2596 73.7932 17.9561 73.6748C17.6525 73.5564 17.2623 73.3983 17.0889 73.3193C16.9154 73.2443 16.5098 73.0466 16.1826 72.8848C15.8594 72.719 15.4054 72.4779 15.1768 72.3477C14.948 72.2173 14.5066 71.9415 14.1914 71.7363C13.8761 71.5311 13.4154 71.2109 13.167 71.0254C12.9187 70.8399 12.5081 70.5208 12.2598 70.3115C12.0114 70.1023 11.6135 69.7503 11.373 69.5332C11.1366 69.3122 10.7782 68.965 10.5811 68.7637C10.384 68.5584 10.0565 68.2065 9.85547 67.9775C9.65443 67.7486 9.31924 67.3503 9.11035 67.0898C8.90142 66.8293 8.54599 66.3598 8.32129 66.0439C8.10059 65.7282 7.78564 65.2663 7.62793 65.0176C7.47026 64.7689 7.19403 64.307 7.0127 63.9912C6.83536 63.6755 6.5243 63.0795 6.32324 62.6689C6.1222 62.2584 5.86624 61.6972 5.75586 61.4248C5.64154 61.1524 5.44357 60.6472 5.31348 60.2998C5.18734 59.9524 4.98641 59.3487 4.86816 58.958C4.74992 58.5673 4.57317 57.8999 4.47461 57.4775C4.37213 57.0552 4.22244 56.3012 4.13965 55.7998C4.05688 55.2985 3.95831 54.6352 3.92676 54.3193C3.89129 54.0036 3.84394 53.4549 3.82422 53.0957C3.80451 52.7365 3.78418 52.0018 3.78418 51.457C3.78418 50.9164 3.80452 50.1787 3.82422 49.8193C3.84787 49.4602 3.89132 48.9192 3.92285 48.6152C3.95833 48.3113 4.0288 47.7781 4.08398 47.4307C4.13916 47.0834 4.21835 46.6138 4.26172 46.3848C4.30508 46.1558 4.43068 45.6149 4.53711 45.1807C4.64749 44.7464 4.81356 44.1342 4.91211 43.8184C5.00674 43.5025 5.17579 42.9972 5.28613 42.6934C5.39651 42.3894 5.59355 41.8841 5.72363 41.5684C5.85372 41.2526 6.1222 40.6606 6.32324 40.2461C6.52422 39.8357 6.83527 39.2397 7.0127 38.9238C7.19403 38.608 7.48573 38.1298 7.65918 37.8574C7.8287 37.585 8.13685 37.1348 8.33789 36.8506C8.53897 36.5663 8.87803 36.117 9.09473 35.8447C9.31154 35.5723 9.70944 35.1018 9.98145 34.7979C10.2534 34.4939 10.6872 34.0445 10.9434 33.7959C11.1996 33.5472 11.6255 33.1557 11.8896 32.9268C12.1498 32.6978 12.5518 32.3621 12.7764 32.1885C13.0011 32.0108 13.4348 31.6916 13.7383 31.4824C14.0417 31.2733 14.5459 30.9454 14.8613 30.7559C15.1766 30.5704 15.7523 30.2551 16.1426 30.0537C16.5326 29.8564 17.0649 29.6038 17.3252 29.4971C17.5854 29.3865 18.047 29.2043 18.3506 29.0938C18.6542 28.9832 19.171 28.8134 19.4941 28.7227C19.8213 28.6279 20.3256 28.4938 20.6172 28.4268C20.9088 28.3636 21.417 28.2652 21.7402 28.21C22.0674 28.1547 22.5097 28.0911 22.7266 28.0674C22.9435 28.0437 23.3337 28.0119 23.5938 27.9922C23.854 27.9764 24.3699 27.9571 24.7363 27.9531ZM57.9287 51.0859C58.2125 51.0859 58.6268 51.0984 58.8555 51.1221C59.0841 51.1458 59.4192 51.1891 59.6045 51.2246C59.7898 51.2601 60.1606 51.3585 60.4326 51.4453C60.7045 51.5321 61.1219 51.7019 61.3584 51.8203C61.5949 51.9387 61.934 52.1364 62.1035 52.2588C62.277 52.3851 62.557 52.6261 62.7305 52.7998C62.9038 52.9734 63.1637 53.2927 63.3057 53.5098C63.4514 53.7307 63.629 54.07 63.7119 54.2793C63.7908 54.4846 63.8854 54.797 63.9248 54.9707C63.9681 55.1838 63.9922 55.4718 63.9922 55.8584C63.9922 56.174 63.9719 56.5452 63.9443 56.6875C63.9207 56.8295 63.8501 57.0861 63.7949 57.2598C63.7397 57.4335 63.6132 57.7382 63.5107 57.9316C63.4122 58.125 63.2586 58.3856 63.168 58.5039C63.0812 58.6223 62.8763 58.8587 62.7148 59.0322C62.5532 59.202 62.2732 59.4633 62.0879 59.6094C61.9026 59.7554 61.6186 59.9608 61.457 60.0713C61.2953 60.1779 61.0113 60.3554 60.8262 60.458C60.6408 60.5607 60.2863 60.742 60.0381 60.8564C59.7898 60.967 59.3561 61.1483 59.0723 61.2588C58.7884 61.3654 58.2322 61.5554 57.8301 61.6738C57.428 61.7962 56.7971 61.9659 56.4307 62.0527C56.0641 62.1356 55.5752 62.2457 55.3467 62.2891C55.1179 62.3325 54.4997 62.4435 53.9678 62.5264C53.4356 62.6132 52.6977 62.7202 52.3311 62.7637C51.9644 62.811 51.4205 62.8698 51.1289 62.9053C50.8374 62.9368 50.5854 62.9764 50.5732 62.9922C50.5575 63.008 50.5613 63.3079 50.5811 63.6553C50.5968 64.0027 50.6326 64.4491 50.6562 64.6426C50.6839 64.8362 50.7543 65.2663 50.8174 65.5898C50.8805 65.9175 51.0302 66.4661 51.1445 66.8135C51.2588 67.1608 51.4723 67.6854 51.6143 67.9775C51.7562 68.2697 52.0044 68.7045 52.1621 68.9453C52.3198 69.1822 52.599 69.5458 52.7842 69.751C52.9694 69.9562 53.2495 70.2319 53.4072 70.3662C53.5689 70.4965 53.8258 70.6903 53.9795 70.793C54.1373 70.8956 54.4212 71.0616 54.6182 71.1562C54.8151 71.2509 55.0828 71.3648 55.2207 71.4082C55.3547 71.4556 55.5952 71.5192 55.7529 71.5508C55.9066 71.5863 56.2139 71.6258 56.4307 71.6455C56.6474 71.6613 57.0223 71.6613 57.2588 71.6455C57.4953 71.6258 57.8701 71.5747 58.0869 71.5273C58.3037 71.4839 58.6785 71.3729 58.915 71.29C59.1515 71.2032 59.4588 71.0769 59.5967 71.0059C59.7307 70.9348 59.8448 70.8673 59.8408 70.8516C59.8406 70.8321 59.8213 70.8204 59.8018 70.8203C59.782 70.8203 59.6439 70.7094 59.502 70.5752C59.3561 70.437 59.1668 70.2201 59.0801 70.0898C58.9894 69.9596 58.8793 69.7541 58.832 69.6357C58.7847 69.5173 58.7171 69.2809 58.6816 69.1152C58.6462 68.9455 58.6191 68.7083 58.6191 68.5898C58.6191 68.4714 58.6462 68.2341 58.6816 68.0684C58.7171 67.8987 58.7848 67.6623 58.832 67.5439C58.8793 67.4255 58.9894 67.2201 59.0801 67.0898C59.1668 66.9596 59.36 66.7388 59.5098 66.5967C59.6872 66.4269 59.8964 66.2805 60.1172 66.1699C60.3023 66.0793 60.5777 65.977 60.7275 65.9453C60.8773 65.9137 61.1536 65.8858 61.3389 65.8857C61.5241 65.8857 61.8004 65.9137 61.9502 65.9453C62.1 65.9769 62.3763 66.0753 62.5615 66.166C62.8293 66.3001 62.9636 66.3987 63.2354 66.6709C63.4325 66.8683 63.6253 67.1099 63.7002 67.248C63.7711 67.3783 63.8697 67.6108 63.9209 67.7607C63.9761 67.9226 64.0233 68.1834 64.0391 68.3926C64.0588 68.6372 64.0472 68.8502 64.0039 69.083C63.9645 69.312 63.8898 69.5297 63.7676 69.7744C63.673 69.9678 63.5068 70.2282 63.4004 70.3506C63.2978 70.4731 63.0301 70.7846 62.8135 71.041C62.5927 71.2976 62.2296 71.6891 62.001 71.9062C61.7763 72.1233 61.445 72.4233 61.2598 72.5693C61.0744 72.7194 60.7199 72.9759 60.4717 73.1455C60.2235 73.3151 59.8613 73.5437 59.6641 73.6543C59.467 73.7648 59.1115 73.9432 58.875 74.0498C58.6384 74.1564 58.1931 74.3262 57.8896 74.4248C57.5861 74.5235 57.0973 74.6498 56.8057 74.7051C56.514 74.7603 56.0088 74.823 55.6816 74.8467C55.2365 74.8822 54.9489 74.8822 54.5195 74.8467C54.2042 74.823 53.758 74.768 53.5254 74.7246C53.2888 74.6851 52.8551 74.5703 52.5596 74.4717C52.26 74.373 51.8031 74.1839 51.543 74.0537C51.2828 73.9195 50.9197 73.7141 50.7344 73.5957C50.5491 73.4733 50.2497 73.2603 50.0645 73.1143C49.8792 72.9722 49.5682 72.6954 49.3711 72.498C49.178 72.3046 48.8824 71.9729 48.7168 71.7676C48.5512 71.5623 48.2905 71.1988 48.1367 70.958C47.979 70.7171 47.7308 70.2755 47.5811 69.9717C47.4352 69.6677 47.2304 69.1895 47.1279 68.9053C47.0254 68.621 46.8835 68.163 46.8086 67.8789C46.7376 67.5947 46.643 67.1607 46.5996 66.9121C46.5562 66.6634 46.5012 66.1735 46.4736 65.8262C46.4461 65.4433 46.4383 64.8905 46.4541 64.4248C46.4659 64.0024 46.5046 63.4141 46.54 63.1221C46.5716 62.8299 46.6431 62.3603 46.6982 62.0762C46.7534 61.7921 46.8481 61.3504 46.9111 61.0898C46.9703 60.8293 47.1045 60.3588 47.207 60.043C47.3095 59.7272 47.4825 59.2498 47.5889 58.9775C47.6953 58.7052 47.9243 58.2076 48.0898 57.8721C48.2594 57.5365 48.5075 57.0746 48.6455 56.8457C48.7835 56.6168 49.0124 56.2619 49.1543 56.0566C49.2962 55.8514 49.5164 55.5466 49.6426 55.3848C49.7687 55.2229 50.0412 54.9037 50.2422 54.6748C50.4432 54.4458 50.7504 54.1334 50.9199 53.9795C51.0893 53.8256 51.3415 53.6009 51.4834 53.4824C51.6253 53.364 51.8899 53.1586 52.0752 53.0283C52.2605 52.8941 52.5522 52.6964 52.7256 52.5898C52.8991 52.4832 53.2382 52.2981 53.4746 52.1797C53.7111 52.0573 54.0859 51.8838 54.3027 51.793C54.5196 51.7061 54.965 51.5517 55.2881 51.457C55.6152 51.3623 56.0643 51.2563 56.293 51.2207C56.5215 51.1852 56.8644 51.1418 57.0615 51.126C57.2585 51.1062 57.6449 51.0899 57.9287 51.0859ZM116.469 51.0234C116.981 51.0353 117.368 51.0629 117.691 51.1182C117.951 51.1616 118.318 51.2446 118.511 51.2998C118.7 51.3551 119.008 51.4611 119.201 51.5361C119.39 51.6151 119.686 51.7616 119.859 51.8643C120.033 51.9669 120.301 52.1482 120.451 52.2705C120.601 52.389 120.814 52.5867 120.92 52.7051C121.026 52.8234 121.188 53.0241 121.278 53.1543C121.373 53.2845 121.526 53.5334 121.617 53.707C121.712 53.8806 121.846 54.1728 121.921 54.3584C121.992 54.5439 122.094 54.8641 122.149 55.0693C122.201 55.2746 122.284 55.6931 122.335 55.9971C122.41 56.4865 122.418 56.6997 122.418 57.8721C122.418 58.9259 122.394 59.4826 122.312 60.6152C122.252 61.3966 122.177 62.3561 122.146 62.7471C122.114 63.1379 122.051 64.0066 122.004 64.6816C121.937 65.6014 121.913 66.2924 121.913 67.4648C121.909 68.5702 121.925 69.1111 121.961 69.3203C121.989 69.4821 122.055 69.7937 122.11 70.0107C122.169 70.2555 122.288 70.5637 122.414 70.8203C122.568 71.1321 122.686 71.3063 122.898 71.5312C123.103 71.7484 123.258 71.8708 123.49 71.9932C123.66 72.0839 123.908 72.1862 124.038 72.2178C124.18 72.2572 124.436 72.2812 124.688 72.2812C124.964 72.2812 125.209 72.2535 125.43 72.2021C125.607 72.1587 125.918 72.0594 126.119 71.9766C126.316 71.8977 126.655 71.7405 126.868 71.6221C127.077 71.5076 127.283 71.4121 127.322 71.4121C127.358 71.4123 127.417 71.4324 127.452 71.46C127.488 71.4882 127.626 71.677 127.76 71.8779C127.894 72.0789 128 72.2841 128 72.3398C128 72.4109 127.917 72.5136 127.696 72.7188C127.527 72.8767 127.247 73.1099 127.073 73.2441C126.9 73.3744 126.581 73.5914 126.364 73.7217C126.147 73.852 125.8 74.0332 125.595 74.124C125.39 74.2148 125.008 74.3537 124.748 74.4287C124.488 74.5037 124.073 74.5904 123.833 74.626C123.589 74.6615 123.195 74.6894 122.954 74.6895C122.714 74.6895 122.382 74.6692 122.217 74.6455C122.047 74.6218 121.775 74.5707 121.613 74.5312C121.452 74.4918 121.176 74.401 121.003 74.3379C120.829 74.2708 120.525 74.1165 120.332 73.9941C120.139 73.8717 119.863 73.6741 119.726 73.5518C119.584 73.4255 119.379 73.2124 119.265 73.0703C119.15 72.9282 118.98 72.6794 118.886 72.5176C118.787 72.3557 118.638 72.0442 118.547 71.8271C118.46 71.61 118.341 71.2465 118.286 71.0176C118.231 70.7887 118.16 70.3942 118.125 70.1416C118.093 69.885 118.065 69.3952 118.065 69.0557C118.061 68.4958 118.058 68.4401 118.003 68.5107C117.971 68.5542 117.805 68.8193 117.64 69.1035C117.47 69.3877 117.218 69.786 117.08 69.9912C116.942 70.1964 116.698 70.5436 116.536 70.7607C116.371 70.9779 116.087 71.3337 115.901 71.5508C115.716 71.7679 115.369 72.1392 115.129 72.376C114.892 72.6168 114.518 72.9524 114.301 73.1221C114.084 73.2956 113.758 73.5357 113.572 73.6621C113.387 73.7845 113.094 73.9667 112.921 74.0654C112.747 74.1641 112.4 74.3262 112.152 74.4248C111.904 74.5235 111.514 74.646 111.285 74.6973C110.934 74.7722 110.753 74.7842 110.122 74.7842C109.515 74.7842 109.302 74.7682 108.999 74.7012C108.794 74.6578 108.44 74.5468 108.211 74.46C107.982 74.3692 107.631 74.1957 107.426 74.0693C107.225 73.943 106.897 73.6865 106.696 73.501C106.499 73.3154 106.247 73.0387 106.137 72.8887C106.022 72.7387 105.853 72.4667 105.755 72.2812C105.656 72.0957 105.526 71.819 105.471 71.6689C105.412 71.519 105.317 71.2074 105.262 70.9785C105.163 70.5917 105.155 70.5045 105.155 69.6758C105.155 68.9811 105.171 68.7164 105.223 68.4717C105.262 68.2981 105.336 67.9942 105.392 67.8008C105.447 67.6073 105.605 67.2159 105.743 66.9316C105.877 66.6475 106.094 66.2685 106.22 66.083C106.346 65.8975 106.586 65.586 106.756 65.3926C106.925 65.1992 107.181 64.9301 107.331 64.7959C107.477 64.6657 107.769 64.4333 107.974 64.2793C108.179 64.1253 108.51 63.8997 108.703 63.7812C108.896 63.6628 109.208 63.4932 109.394 63.3984C109.579 63.3076 109.941 63.1378 110.201 63.0234C110.461 62.909 110.994 62.7084 111.384 62.5781C111.774 62.4479 112.378 62.2695 112.725 62.1826C113.072 62.0958 113.604 61.9781 113.907 61.9229C114.211 61.8676 114.715 61.7885 115.03 61.7451C115.346 61.7017 115.807 61.6458 116.056 61.6221C116.304 61.6023 116.899 61.5627 117.376 61.543C117.851 61.5194 118.244 61.4963 118.255 61.4922C118.259 61.4882 118.298 61.1448 118.342 60.7344C118.385 60.3238 118.44 59.5139 118.464 58.9375C118.503 58.1406 118.503 57.7696 118.468 57.3789C118.444 57.0947 118.377 56.6878 118.326 56.4707C118.263 56.222 118.145 55.9179 118.011 55.6416C117.889 55.4008 117.675 55.0614 117.533 54.8838C117.376 54.6826 117.143 54.4538 116.935 54.2881C116.741 54.142 116.418 53.9366 116.213 53.834C115.992 53.7234 115.645 53.5965 115.365 53.5215C114.904 53.3992 114.873 53.3955 114.045 53.3955C113.316 53.3955 113.142 53.4074 112.795 53.4824C112.57 53.5298 112.271 53.6127 112.125 53.668C111.975 53.7232 111.731 53.8418 111.581 53.9326C111.431 54.0234 111.206 54.197 111.088 54.3193C110.97 54.4378 110.816 54.6432 110.745 54.7734C110.674 54.9036 110.615 55.0378 110.615 55.0693C110.615 55.1009 110.691 55.1675 110.781 55.2109C110.876 55.2583 111.064 55.3809 111.202 55.4873C111.344 55.5939 111.546 55.7877 111.656 55.918C111.763 56.0483 111.92 56.2971 112.003 56.4707C112.086 56.6444 112.18 56.9212 112.216 57.083C112.259 57.292 112.275 57.5011 112.259 57.793C112.247 58.1048 112.216 58.2828 112.137 58.5039C112.081 58.6658 111.964 58.9146 111.881 59.0566C111.794 59.1987 111.613 59.4273 111.475 59.5615C111.341 59.6997 111.112 59.8819 110.97 59.9688C110.828 60.0516 110.579 60.1694 110.418 60.2246C110.197 60.3035 110.016 60.3358 109.709 60.3516C109.394 60.3673 109.22 60.355 108.979 60.2998C108.806 60.2603 108.53 60.162 108.368 60.0791C108.207 59.9962 107.97 59.8419 107.844 59.7393C107.718 59.6366 107.552 59.4707 107.478 59.3721C107.399 59.2734 107.236 59.0246 107.114 58.8193C106.996 58.6141 106.85 58.3102 106.795 58.1484C106.704 57.884 106.696 57.7926 106.696 57.2598C106.7 56.7944 106.716 56.6049 106.779 56.3721C106.823 56.2104 106.917 55.9422 106.988 55.7803C107.059 55.6185 107.19 55.3697 107.276 55.2275C107.367 55.0855 107.545 54.829 107.679 54.6553C107.813 54.4817 108.08 54.1894 108.273 54.0078C108.466 53.8263 108.758 53.5736 108.92 53.4512C109.081 53.3289 109.377 53.1273 109.57 53.001C109.763 52.8786 110.237 52.6221 110.615 52.4287C110.994 52.2393 111.596 51.9741 111.955 51.8438C112.314 51.7135 112.846 51.5399 113.138 51.4609C113.429 51.382 113.84 51.2876 114.045 51.2441C114.25 51.2007 114.648 51.141 114.932 51.1055C115.215 51.07 115.507 51.0353 115.582 51.0273C115.657 51.0195 116.059 51.0156 116.469 51.0234ZM95.2012 51.0068C95.3194 51.0068 95.5522 51.0232 95.7139 51.043C95.8755 51.0667 96.1517 51.1177 96.3252 51.1611C96.4987 51.2085 96.7903 51.3194 96.9756 51.4102C97.1609 51.501 97.4371 51.6745 97.5869 51.7969C97.7366 51.9192 97.9415 52.1044 98.04 52.2109C98.1385 52.3175 98.3038 52.519 98.4023 52.6611C98.5048 52.8032 98.6941 53.1388 98.8242 53.4111C98.9543 53.6835 99.1243 54.1184 99.2031 54.3789C99.2819 54.6394 99.3805 55.0454 99.4199 55.2861C99.4593 55.5269 99.5144 56.0408 99.542 56.4316C99.5774 56.9801 99.5775 57.3276 99.542 57.9512C99.5144 58.3973 99.471 59.1002 99.4395 59.5107C99.4079 59.9213 99.3528 60.5723 99.3213 60.9512C99.2897 61.3301 99.2424 61.8123 99.2227 62.0176C99.2029 62.2231 99.1555 62.7198 99.124 63.1221C99.0925 63.5247 99.0297 64.3347 98.9863 64.9189C98.9469 65.5032 98.8879 66.4463 98.8643 67.0107C98.8288 67.7924 98.8288 68.2346 98.8643 68.8662C98.8879 69.3241 98.9352 69.8573 98.9707 70.0508C99.0023 70.2442 99.0767 70.5404 99.1279 70.7021C99.1831 70.8639 99.2894 71.0809 99.3643 71.1875C99.4549 71.3137 99.5653 71.4046 99.707 71.4717C99.8174 71.5269 100.054 71.5906 100.228 71.6143C100.409 71.6379 100.696 71.6456 100.897 71.6299C101.091 71.618 101.414 71.5824 101.607 71.5508C101.801 71.5192 102.175 71.4324 102.436 71.3574C102.696 71.2864 103.071 71.16 103.264 71.085C103.457 71.006 103.709 70.9028 103.823 70.8516C103.988 70.7768 104.043 70.7694 104.118 70.8047C104.185 70.8363 104.253 70.9623 104.379 71.3096C104.469 71.5619 104.544 71.8105 104.544 71.8662C104.544 71.9333 104.493 72.0049 104.379 72.0996C104.284 72.1746 104.067 72.3279 103.894 72.4424C103.72 72.5568 103.401 72.7507 103.185 72.873C102.968 72.9993 102.629 73.1806 102.436 73.2754C102.242 73.3741 101.832 73.5641 101.528 73.6943C101.225 73.8245 100.756 74.0097 100.484 74.1084C100.212 74.2071 99.7507 74.3498 99.459 74.4287C99.1674 74.5037 98.7654 74.5982 98.5723 74.6338C98.3595 74.6732 98.0048 74.7011 97.6855 74.7051C97.2716 74.709 97.1013 74.693 96.916 74.6338C96.7861 74.5943 96.6015 74.5229 96.5029 74.4717C96.4044 74.4204 96.2383 74.3017 96.1318 74.2109C96.0255 74.1162 95.8563 73.9116 95.7578 73.7617C95.6553 73.6117 95.5134 73.335 95.4424 73.1494C95.3714 72.9639 95.2729 72.6361 95.2217 72.4189C95.1704 72.2018 95.1106 71.8624 95.0869 71.6689C95.0633 71.4754 95.0285 71.0569 95.0049 70.7412C94.9852 70.4254 94.9649 69.5218 94.9648 68.7285C94.9648 67.9351 94.9929 66.8176 95.0244 66.2412C95.056 65.6649 95.111 64.8038 95.1426 64.3262C95.1741 63.8489 95.2215 63.2732 95.2412 63.0439C95.2609 62.815 95.3237 62.1314 95.3789 61.5234C95.4302 60.9156 95.5016 60.0631 95.5371 59.6289C95.5686 59.1947 95.5957 58.6296 95.5957 58.377C95.5957 58.1205 95.5686 57.7027 95.5371 57.4502C95.5016 57.1858 95.4224 56.8379 95.3594 56.6484C95.2924 56.463 95.1823 56.2181 95.1152 56.0996C95.0443 55.9851 94.8858 55.7999 94.7676 55.6934C94.6493 55.5868 94.4522 55.4517 94.334 55.3965C94.2156 55.3413 94.0108 55.2863 93.8809 55.2705C93.7508 55.2587 93.5383 55.2587 93.4082 55.2744C93.2664 55.2941 93.0456 55.3692 92.8564 55.46C92.683 55.5429 92.4338 55.6933 92.3037 55.7881C92.1735 55.887 91.9175 56.1155 91.7324 56.2969C91.5471 56.4785 91.2709 56.7783 91.1211 56.9639C90.9674 57.1494 90.7549 57.4262 90.6445 57.5762C90.5341 57.7262 90.3565 57.9866 90.2461 58.1484C90.1396 58.3103 89.931 58.6498 89.7812 58.8984C89.6354 59.1471 89.3669 59.637 89.1855 59.9844C89.0043 60.3316 88.729 60.9075 88.5674 61.2666C88.4058 61.6257 88.1576 62.2101 88.0156 62.5693C87.8737 62.9286 87.6487 63.5331 87.5146 63.9121C87.3806 64.2911 87.1594 64.9738 87.0215 65.4316C86.8835 65.8895 86.6749 66.6435 86.5566 67.1094C86.4384 67.5751 86.2684 68.2974 86.1777 68.708C86.091 69.1185 85.9577 69.8292 85.8828 70.2871C85.804 70.745 85.7094 71.393 85.666 71.7285C85.6227 72.064 85.5589 72.6794 85.5273 73.0898C85.4959 73.4995 85.4572 73.8704 85.4453 73.9111C85.4335 73.9467 85.3581 73.9939 85.2793 74.0176C85.1965 74.0373 84.5464 74.128 83.8291 74.2148C83.1116 74.3017 82.4134 74.3885 82.2715 74.4043C82.1297 74.4201 81.921 74.4249 81.8066 74.4131C81.6845 74.4012 81.5813 74.3695 81.5576 74.334C81.53 74.2945 81.5262 74.0531 81.542 73.6426C81.5538 73.2951 81.5896 72.514 81.6211 71.9062C81.6566 71.2984 81.7154 70.2165 81.7588 69.498C81.8022 68.7796 81.8533 67.8752 81.877 67.4844C81.9006 67.0935 81.9518 66.1697 81.9951 65.4316C82.0385 64.6935 82.0819 63.9752 82.0938 63.833C82.1056 63.6909 82.1616 62.8145 82.2168 61.8789C82.2799 60.8528 82.3193 59.7319 82.3232 59.0371C82.3311 58.0857 82.3189 57.8285 82.2598 57.5166C82.2204 57.3114 82.1373 56.9922 82.0703 56.8066C82.0072 56.6211 81.8778 56.3559 81.7871 56.2178C81.6964 56.0796 81.5419 55.8945 81.4434 55.8076C81.3448 55.7208 81.168 55.6022 81.0498 55.5469C80.8645 55.46 80.7771 55.4443 80.4775 55.4443C80.2018 55.4444 80.0595 55.468 79.8467 55.543C79.6969 55.5944 79.4214 55.7362 79.2363 55.8584C79.051 55.9808 78.7353 56.2421 78.5303 56.4355C78.3292 56.629 78.0413 56.9289 77.8955 57.1025C77.7496 57.2763 77.482 57.6235 77.3047 57.8721C77.1273 58.1208 76.8191 58.5943 76.626 58.918C76.4328 59.2456 76.0629 59.9369 75.8066 60.458C75.5504 60.9791 75.2384 61.6464 75.1162 61.9385C74.994 62.2307 74.7738 62.791 74.624 63.1816C74.4782 63.5725 74.2569 64.1964 74.1387 64.5635C74.0165 64.9306 73.8591 65.4398 73.7842 65.6885C73.7093 65.9372 73.5634 66.4541 73.4648 66.833C73.3663 67.212 73.1973 67.9429 73.0869 68.4521C72.9766 68.9613 72.8259 69.7501 72.751 70.208C72.68 70.6658 72.5902 71.2424 72.5586 71.4912C72.5231 71.7399 72.472 72.2221 72.4404 72.5576C72.4089 72.8931 72.3732 73.331 72.3574 73.5244C72.3417 73.785 72.3178 73.8999 72.2666 73.9473C72.2151 74.0024 72.0134 74.0413 71.4307 74.1201C71.0089 74.1754 70.2642 74.2709 69.7754 74.3262C69.2787 74.3854 68.7931 74.4249 68.6709 74.4131C68.4899 74.3973 68.4466 74.3768 68.4111 74.2939C68.3758 74.2186 68.3871 73.9062 68.458 72.9912C68.5053 72.3279 68.5923 71.061 68.6475 70.1689C68.7026 69.277 68.7741 68.0023 68.8096 67.3271C68.8411 66.6522 68.8962 65.4836 68.9277 64.7217C68.9593 63.9638 69.0144 62.6726 69.0459 61.8594C69.0774 61.0462 69.1248 59.6403 69.1484 58.7402C69.1721 57.8402 69.1837 56.6483 69.1719 56.0957C69.16 55.3339 69.1362 55.0379 69.0889 54.8721C69.0574 54.7538 68.9868 54.5763 68.9355 54.4775C68.8843 54.3789 68.7742 54.2439 68.6875 54.1768C68.5812 54.0939 68.4507 54.0434 68.2578 54.0039C68.0686 53.9684 67.8473 53.9598 67.5674 53.9756C67.3387 53.9914 66.8973 54.055 66.582 54.1221C66.2667 54.1852 65.7268 54.3077 65.3799 54.3945C64.8635 54.5208 64.7331 54.5404 64.6582 54.501C64.6109 54.4773 64.5519 54.406 64.5322 54.3389C64.5125 54.2716 64.4497 53.9795 64.3945 53.6875C64.3395 53.396 64.2999 53.1243 64.3115 53.0879C64.3273 53.0484 64.3822 52.9925 64.4453 52.9609C64.5049 52.9292 65.1277 52.7201 65.833 52.4912C66.5386 52.2583 67.4533 51.9739 67.8633 51.8555C68.273 51.7371 68.8324 51.5876 69.1045 51.5244C69.3764 51.4573 69.7908 51.3667 70.0312 51.3193C70.2717 51.272 70.6503 51.2247 70.8789 51.2129C71.1665 51.2011 71.3753 51.2086 71.5684 51.252C71.7182 51.2835 71.9433 51.3549 72.0615 51.4102C72.1798 51.4654 72.3807 51.6033 72.5107 51.7217C72.6367 51.836 72.7903 52.0213 72.8496 52.1279C72.9087 52.2383 72.9995 52.4516 73.043 52.6016C73.0903 52.7515 73.1453 53.0717 73.1689 53.3125C73.2005 53.6243 73.2005 53.9678 73.165 54.5361C73.1414 54.9704 73.0863 55.8237 73.043 56.4316C72.9996 57.0396 72.933 57.9711 72.8896 58.5039C72.8463 59.0365 72.7952 59.6912 72.7715 59.9639C72.7518 60.2363 72.688 60.9632 72.6328 61.583C72.5776 62.2027 72.5226 62.7871 72.5107 62.8857C72.4871 63.0433 72.4948 63.055 72.542 63.0039C72.5735 62.9723 72.732 62.5615 72.8857 62.0957C73.0434 61.6299 73.2714 60.9905 73.3896 60.6748C73.5079 60.359 73.7407 59.7824 73.9062 59.3916C74.0718 59.0008 74.4147 58.263 74.6709 57.7539C74.9231 57.2448 75.2544 56.6132 75.4043 56.3525C75.5501 56.092 75.7627 55.7362 75.873 55.5625C75.9795 55.3888 76.1814 55.085 76.3193 54.8916C76.4573 54.6982 76.6505 54.43 76.749 54.2998C76.8476 54.1696 77.0523 53.9208 77.2061 53.7471C77.3558 53.5734 77.5964 53.3169 77.7383 53.1748C77.8802 53.0327 78.1091 52.8148 78.251 52.6924C78.393 52.5739 78.6413 52.3771 78.8027 52.2627C78.9644 52.1443 79.2918 51.9466 79.5322 51.8242C79.7726 51.7019 80.1504 51.5398 80.3789 51.4648C80.6075 51.3859 80.9349 51.2953 81.1084 51.2598C81.3173 51.2164 81.6131 51.1924 81.9756 51.1924C82.358 51.1924 82.6145 51.2124 82.8037 51.2559C82.9535 51.2953 83.194 51.3705 83.3359 51.4258C83.4779 51.4811 83.7067 51.6036 83.8486 51.6904C83.9906 51.7813 84.2312 51.9742 84.3809 52.1162C84.5305 52.2582 84.7586 52.5148 84.8809 52.6846C85.003 52.8582 85.1963 53.1745 85.3066 53.3916C85.417 53.6087 85.587 54.0349 85.6855 54.3389C85.792 54.6586 85.9058 55.1246 85.957 55.4443C86.0083 55.7482 86.072 56.2255 86.0996 56.5098C86.1311 56.8532 86.1388 57.3944 86.123 58.1484C86.1112 58.7682 86.0716 59.6726 86.0361 60.1621C86.0046 60.6516 85.9495 61.3777 85.918 61.7803C85.8865 62.1826 85.8507 62.5691 85.8389 62.6406C85.827 62.7275 85.8356 62.7676 85.8711 62.7676C85.8993 62.7614 86.0169 62.4578 86.1543 62.0449C86.2844 61.6502 86.5017 61.034 86.6318 60.6748C86.7659 60.3156 86.9822 59.7669 87.1123 59.4512C87.2424 59.1354 87.4124 58.7449 87.4873 58.583C87.5622 58.4212 87.7196 58.0817 87.8379 57.833C87.9561 57.5844 88.1928 57.1224 88.3623 56.8066C88.5318 56.4908 88.8032 56.0126 88.9648 55.7402C89.1304 55.4678 89.3592 55.1044 89.4814 54.9307C89.5997 54.7569 89.8171 54.4531 89.9629 54.2598C90.1088 54.0663 90.4044 53.7114 90.6172 53.4707C90.834 53.2299 91.1575 52.9022 91.3428 52.7324C91.5241 52.5667 91.7801 52.3497 91.9102 52.2471C92.0402 52.1484 92.2885 51.9787 92.4619 51.8721C92.6354 51.7655 92.9628 51.5958 93.1914 51.4971C93.42 51.3944 93.7552 51.2681 93.9404 51.2168C94.1257 51.1655 94.4368 51.094 94.6299 51.0664C94.8228 51.0349 95.0827 51.0108 95.2012 51.0068ZM26.0967 57.5166V72.9912C26.4475 72.9557 26.8067 72.8933 27.1221 72.8262C27.4375 72.763 27.958 72.6203 28.2852 72.5098C28.6084 72.3992 29.0538 72.2334 29.2705 72.1348C29.4873 72.04 29.8854 71.8471 30.1572 71.7051C30.4292 71.559 30.8986 71.2785 31.2021 71.0771C31.5057 70.8758 31.8959 70.5991 32.0693 70.4609C32.2428 70.3267 32.5703 70.0508 32.7988 69.8496C33.0275 69.6522 33.4331 69.2607 33.7051 68.9805C33.977 68.7003 34.3315 68.3097 34.4971 68.1162C34.6587 67.9228 34.9272 67.5833 35.0928 67.3662C35.2544 67.1491 35.5423 66.7499 35.7275 66.4775C35.9088 66.2053 36.1369 65.858 36.2275 65.708C36.3221 65.5541 36.4999 65.2542 36.6221 65.0371C36.7482 64.82 36.9887 64.3581 37.1621 64.0107C37.3355 63.6634 37.5915 63.1225 37.7256 62.8066C37.8635 62.4909 38.0692 61.9779 38.1875 61.6621C38.3058 61.3463 38.4912 60.8208 38.5977 60.4971C38.7002 60.1693 38.8731 59.5773 38.9834 59.1748C39.0898 58.7721 39.2164 58.2669 39.2637 58.0498C39.311 57.8327 39.3544 57.6235 39.3662 57.584C39.3818 57.5209 39.045 57.5166 32.7393 57.5166H26.0967ZM117.219 63.3438C116.809 63.3714 116.165 63.4302 115.799 63.4775C115.432 63.521 114.943 63.5923 114.715 63.6357C114.486 63.6792 114.033 63.7862 113.71 63.877C113.383 63.9638 112.878 64.1335 112.586 64.252C112.294 64.3703 111.913 64.5478 111.739 64.6504C111.566 64.7491 111.297 64.9266 111.147 65.0371C110.998 65.1516 110.746 65.3763 110.596 65.5342C110.446 65.696 110.249 65.9332 110.162 66.0635C110.075 66.1937 109.949 66.4145 109.882 66.5566C109.811 66.6987 109.712 66.9552 109.657 67.1289C109.602 67.3026 109.535 67.6073 109.512 67.8008C109.484 68.01 109.473 68.3768 109.48 68.6885C109.492 68.9805 109.531 69.3557 109.57 69.5176C109.606 69.6794 109.713 69.9755 109.808 70.1689C109.926 70.4136 110.04 70.5913 110.186 70.7373C110.304 70.8557 110.47 70.9897 110.557 71.041C110.643 71.0923 110.801 71.1598 110.911 71.1914C111.018 71.223 111.215 71.2626 111.345 71.2744C111.475 71.2902 111.731 71.2785 111.916 71.2549C112.101 71.2272 112.366 71.1714 112.508 71.1279C112.65 71.0844 112.942 70.9581 113.158 70.8516C113.375 70.741 113.659 70.58 113.789 70.4932C113.919 70.4063 114.175 70.2125 114.36 70.0664C114.546 69.9203 114.873 69.6205 115.09 69.3955C115.311 69.1705 115.622 68.8147 115.783 68.6094C115.949 68.4041 116.185 68.0723 116.315 67.8789C116.446 67.6855 116.635 67.3816 116.737 67.208C116.836 67.0343 117.025 66.6717 117.155 66.3994C117.281 66.1271 117.471 65.6729 117.573 65.3926C117.676 65.1084 117.818 64.6301 117.893 64.3262C117.963 64.0225 118.034 63.6637 118.046 63.5254C118.058 63.3438 118.054 63.2802 118.015 63.2842C117.991 63.2881 117.629 63.3122 117.219 63.3438ZM56.6484 53.3877C56.3804 53.3798 56.0565 53.3952 55.8594 53.4268C55.6741 53.4584 55.3466 53.5413 55.1299 53.6123C54.9131 53.6873 54.5866 53.8339 54.4014 53.9404C54.2161 54.047 53.9592 54.2128 53.8291 54.3154C53.6989 54.4142 53.4584 54.6273 53.2969 54.793C53.1353 54.9548 52.8947 55.2316 52.7607 55.4053C52.6307 55.5789 52.4692 55.7998 52.4102 55.8984C52.347 55.9973 52.1896 56.2817 52.0557 56.5303C51.9216 56.779 51.7246 57.2052 51.6143 57.4775C51.5039 57.7499 51.3503 58.1645 51.2754 58.4053C51.2005 58.6461 51.0817 59.0606 51.0146 59.333C50.9476 59.6054 50.8491 60.0827 50.7939 60.3984C50.7388 60.7141 50.6953 61.0024 50.6953 61.0381C50.6953 61.1012 50.7272 61.1057 50.9795 61.0859C51.1372 61.0741 51.6019 61.022 52.0156 60.9707C52.4294 60.9194 53.0485 60.8287 53.3955 60.7734C53.7424 60.7142 54.4012 60.5725 54.8545 60.458C55.3078 60.3435 55.9308 60.1574 56.2344 60.043C56.5379 59.9285 56.9639 59.7472 57.1807 59.6367C57.3973 59.5302 57.7239 59.341 57.9092 59.2227C58.0944 59.1003 58.3987 58.8476 58.584 58.6621C58.773 58.4767 58.9854 58.2279 59.0645 58.1094C59.1393 57.991 59.2456 57.7856 59.3008 57.6553C59.3559 57.5251 59.4313 57.2685 59.4707 57.083C59.5219 56.8305 59.5294 56.6446 59.5137 56.333C59.5018 56.104 59.4545 55.7878 59.4072 55.6299C59.3639 55.4759 59.2779 55.2348 59.2188 55.0967C59.1596 54.9625 59.0485 54.7619 58.9736 54.6553C58.8987 54.5447 58.7491 54.3625 58.6387 54.248C58.5322 54.1336 58.308 53.9523 58.1465 53.8457C57.9691 53.7312 57.7003 53.6004 57.4756 53.5254C57.1606 53.4229 57.0264 53.3995 56.6484 53.3877ZM24.8828 7.24805C24.9003 7.2715 25.1238 7.73202 25.3789 8.27051C25.6391 8.81525 25.896 9.35619 25.9473 9.47461C26.0035 9.59532 26.5585 10.767 27.1807 12.0801C27.8034 13.3943 28.4737 14.803 28.667 15.2178C28.864 15.6321 29.0764 16.0822 29.1436 16.2246C29.2066 16.3667 29.9243 17.8825 30.7363 19.5996C31.5455 21.3108 32.2257 22.7283 32.25 22.7578C32.2763 22.7841 32.3118 22.7828 32.3564 22.7539C32.3919 22.7302 32.6286 22.6001 32.877 22.4619C33.1253 22.3277 33.9966 21.8503 34.8086 21.4043C35.6207 20.9622 36.9536 20.2312 37.7656 19.7891C38.5775 19.3431 39.334 18.9283 39.4404 18.8691C39.5508 18.8099 39.8426 18.6488 40.0908 18.5146C40.3392 18.3765 41.2027 17.906 42.0029 17.4678C42.8032 17.0296 44.0018 16.3749 44.6641 16.0117C45.3219 15.6549 45.8631 15.3603 45.8779 15.3564C45.8819 15.3564 45.8857 15.3758 45.8857 15.3955C45.8857 15.4152 45.6182 16.0276 45.291 16.75C44.9599 17.4684 44.6084 18.2456 44.502 18.4746C44.3995 18.7035 44.215 19.1104 44.0928 19.3828C43.9706 19.6551 43.7929 20.0456 43.6982 20.251L42.8701 22.0674C42.7794 22.2727 42.6104 22.6479 42.4961 22.8965C42.3818 23.1452 42.1925 23.5637 42.0742 23.8242C41.956 24.0848 41.7821 24.4676 41.6875 24.6729C41.5929 24.8782 41.42 25.261 41.3018 25.5215C41.1835 25.7819 40.9033 26.3934 40.6826 26.8828C40.458 27.3721 40.1934 27.9564 40.0908 28.1855C39.9844 28.4145 39.7951 28.8291 39.6689 29.1133C39.5389 29.3974 39.2598 30.0136 39.043 30.4873C38.8322 30.9525 38.6478 31.3363 38.6328 31.3438C38.621 31.3438 38.4711 31.2259 38.2979 31.084C38.1244 30.938 37.7535 30.6496 37.4697 30.4404C37.1859 30.2273 36.7446 29.9149 36.4844 29.7412C36.2242 29.5675 35.8137 29.3072 35.5771 29.165C35.3407 29.023 34.9668 28.8098 34.75 28.6914C34.5332 28.573 34.1584 28.383 33.9219 28.2686C33.6854 28.1541 33.3309 27.9882 33.1338 27.9014C32.9367 27.8145 32.5107 27.641 32.1875 27.5146C31.8603 27.3923 31.304 27.1994 30.9453 27.085C30.5866 26.9744 29.9598 26.8047 29.5459 26.71C29.1322 26.6113 28.5768 26.4966 28.3047 26.4531C28.0327 26.4097 27.5904 26.346 27.3184 26.3145C27.0463 26.2789 26.5855 26.2356 26.2939 26.2119C26.0022 26.1922 25.3358 26.1729 24.8154 26.1729C24.2951 26.1729 23.5581 26.2008 23.1797 26.2324C22.8012 26.264 22.241 26.3267 21.9375 26.3701C21.634 26.4135 21.2003 26.4888 20.9717 26.5322C20.743 26.5757 20.2744 26.6818 19.9277 26.7646C19.5808 26.8475 19.0206 27.0057 18.6855 27.1123C18.3506 27.2189 17.8541 27.3925 17.582 27.4912C17.31 27.5938 16.9112 27.7558 16.6943 27.8506C16.4774 27.9454 16.0794 28.1266 15.8076 28.2568C15.5356 28.3832 15.0826 28.6204 14.8027 28.7783C14.5228 28.9362 14.1046 29.1811 13.876 29.3232C13.6473 29.4654 13.3044 29.6862 13.1074 29.8164C12.9103 29.9467 12.5201 30.2273 12.2402 30.4365C11.9604 30.6497 11.5855 30.938 11.4121 31.084C11.2388 31.226 11.089 31.3438 11.0771 31.3438C11.0653 31.3476 11.018 31.2608 10.9707 31.1582C10.9232 31.0552 10.7813 30.7399 10.6514 30.4561C10.5213 30.1718 10.1466 29.3465 9.81543 28.6201C9.48433 27.8938 9.12986 27.1117 9.02344 26.8828C8.92091 26.6538 8.73929 26.2555 8.62109 25.9951C8.50282 25.7345 8.13673 24.9254 7.80566 24.1992C7.47453 23.4729 7.10752 22.6629 6.98926 22.4023C6.871 22.1418 6.69711 21.7589 6.60254 21.5537C6.51169 21.3481 6.23641 20.7444 5.99219 20.2119C5.74778 19.679 5.47153 19.0744 5.38086 18.8691C5.28621 18.6638 5.11724 18.2809 4.99512 18.0205C4.87681 17.7599 4.56486 17.0734 4.30078 16.4932C4.04061 15.9089 3.83192 15.4152 3.84375 15.3955C3.85979 15.3782 4.3749 15.6375 4.99902 15.9795C5.62184 16.3229 6.62635 16.8764 7.2334 17.2119C7.8403 17.5434 8.52213 17.9185 8.75098 18.041C8.9796 18.1634 9.63444 18.5221 10.21 18.8379C10.7855 19.1537 12.1145 19.8807 13.167 20.457C14.2193 21.0333 15.5552 21.7671 16.1426 22.0869C16.7295 22.4064 17.2537 22.6985 17.3135 22.7344C17.3871 22.7765 17.4363 22.7841 17.46 22.7578C17.4851 22.7346 17.6817 22.3337 17.8975 21.8701C18.1182 21.4043 18.3462 20.9221 18.3975 20.8037C18.453 20.6846 19.1744 19.1652 19.998 17.4287C20.8216 15.6924 21.5632 14.1221 21.6504 13.9355C21.7371 13.7501 21.8665 13.4733 21.9375 13.3232C22.0045 13.1732 22.6469 11.8232 23.3564 10.3232C24.066 8.82315 24.6929 7.51186 24.748 7.40527C24.8071 7.29878 24.8671 7.22832 24.8828 7.24805ZM13.9033 12.3955C13.9151 12.3955 14.1085 12.6203 14.3252 12.8965C14.546 13.1689 14.9013 13.6115 15.1182 13.876C15.335 14.1366 15.7445 14.6341 16.0283 14.9814C16.3161 15.3288 16.7816 15.8967 17.0693 16.2441C17.3532 16.5915 17.7869 17.1171 18.0273 17.4092C18.2677 17.7012 18.4649 17.9617 18.4609 17.9814C18.4606 18.0019 18.1449 18.6612 17.7588 19.4424C17.3766 20.2236 17.0182 20.9574 16.9668 21.0723C16.9157 21.1825 16.8645 21.2769 16.8525 21.2773C16.8407 21.2773 15.8826 20.7209 14.7197 20.0459C13.5569 19.3669 12.5948 18.7902 12.5869 18.7705C12.5819 18.7367 12.8377 17.4084 13.1631 15.8105C13.4858 14.2064 13.7647 12.8222 13.7812 12.7314C13.797 12.6446 13.8251 12.5337 13.8408 12.4863C13.8603 12.4355 13.8875 12.3962 13.9033 12.3955ZM35.8379 12.4229C35.8537 12.4386 35.9483 12.8533 36.0469 13.3428C36.1454 13.8323 36.4293 15.2458 36.6816 16.4814C36.9285 17.7096 37.1284 18.7389 37.123 18.7705C37.1152 18.7902 36.9567 18.8973 36.7754 19.0039C36.594 19.1066 36.2868 19.2879 36.0898 19.4023C35.8928 19.5168 35.432 19.7858 35.0654 20.0029C34.6988 20.22 34.0517 20.599 33.6338 20.8477C33.0041 21.2181 32.8657 21.2853 32.834 21.2383C32.8103 21.2067 32.7079 21.0013 32.6055 20.7842C32.499 20.5671 32.1871 19.9355 31.9111 19.3828C31.6392 18.8303 31.3715 18.2817 31.2217 17.9619L31.5254 17.5947C31.6952 17.393 32.7275 16.1416 33.8232 14.8115C34.9151 13.4813 35.822 12.4072 35.8379 12.4229ZM47.8574 11.1758C47.956 11.1719 48.1329 11.1873 48.251 11.2109C48.3692 11.2346 48.575 11.3021 48.7051 11.3652C48.8391 11.4324 49.04 11.5827 49.1699 11.7129C49.3039 11.8432 49.4496 12.0406 49.5166 12.1787C49.5796 12.309 49.6511 12.5415 49.6787 12.6914C49.7142 12.9084 49.7141 13.031 49.6787 13.2559C49.6511 13.4098 49.5835 13.6432 49.5244 13.7695C49.4652 13.8919 49.3232 14.0936 49.2129 14.2119C49.0947 14.342 48.9016 14.4874 48.7402 14.5742C48.5787 14.661 48.3579 14.7399 48.1924 14.7676C47.9716 14.811 47.8566 14.811 47.6201 14.7676C47.435 14.7399 47.2259 14.6697 47.0684 14.5869C46.9264 14.5119 46.7449 14.3807 46.6582 14.3018C46.5754 14.2188 46.4575 14.0808 46.3984 13.9941C46.3354 13.9073 46.2485 13.7375 46.2012 13.6191C46.1539 13.5007 46.1066 13.2682 46.0947 13.1064C46.079 12.8973 46.0914 12.7352 46.1387 12.5537C46.178 12.4118 46.2602 12.1986 46.3311 12.0801C46.3981 11.9617 46.5439 11.7755 46.6543 11.6729C46.7606 11.5664 46.9578 11.4285 47.0879 11.3652C47.2179 11.3021 47.4033 11.2346 47.502 11.2148C47.6005 11.1951 47.7589 11.1797 47.8574 11.1758ZM1.91211 11.1914C2.11309 11.1993 2.31412 11.2387 2.46387 11.2939C2.59396 11.3453 2.79489 11.4561 2.90527 11.5469C3.01959 11.6337 3.18089 11.7958 3.26367 11.9023C3.34646 12.0129 3.45754 12.226 3.50879 12.376C3.58755 12.5969 3.60746 12.7237 3.60352 13.0078C3.59956 13.276 3.57576 13.4221 3.50879 13.5996C3.45758 13.7298 3.37065 13.9072 3.31152 13.9941C3.25239 14.081 3.12203 14.2275 3.01953 14.3223C2.92092 14.413 2.73156 14.5394 2.60156 14.6064C2.47154 14.6735 2.24735 14.7448 2.09766 14.7725C1.89267 14.808 1.76962 14.808 1.54492 14.7725C1.38724 14.7448 1.15058 14.6696 1.0127 14.5986C0.878652 14.5315 0.666122 14.3772 0.540039 14.2549C0.413892 14.1325 0.26808 13.9465 0.212891 13.8359C0.161669 13.7293 0.0910804 13.5402 0.0595703 13.4219C0.0280335 13.3034 0 13.1057 0 12.9873C4.04664e-05 12.8689 0.0193405 12.6914 0.0429688 12.5928C0.0666142 12.4941 0.134208 12.3051 0.201172 12.1709C0.272092 12.0131 0.398216 11.8393 0.540039 11.7012C0.66609 11.5789 0.874773 11.4285 1.00488 11.3652C1.13492 11.3021 1.32036 11.2347 1.41895 11.2109C1.5175 11.1912 1.73866 11.1835 1.91211 11.1914ZM13.167 7.5791C13.3954 7.57913 13.5884 7.60301 13.7656 7.6582C13.943 7.70952 14.1167 7.80043 14.2783 7.92676C14.4124 8.0294 14.5978 8.22316 14.6924 8.36133C14.7869 8.49556 14.8933 8.70872 14.9287 8.83496C14.9681 8.97314 14.9922 9.19032 14.9922 9.39551C14.9882 9.6165 14.9643 9.80616 14.9131 9.94824C14.8736 10.0667 14.7596 10.2799 14.6611 10.418C14.5665 10.5561 14.4081 10.7258 14.3096 10.7969C14.211 10.8719 14.0255 10.9779 13.8955 11.0371C13.6828 11.1397 13.6158 11.1484 12.749 11.1523L12.4141 10.9902C12.1777 10.8719 12.0276 10.7652 11.8857 10.6113C11.7754 10.4929 11.6412 10.2991 11.582 10.1807C11.5269 10.0622 11.4592 9.88869 11.4355 9.79004C11.4119 9.6913 11.3926 9.49751 11.3926 9.35547C11.3926 9.21336 11.4206 9.00016 11.4561 8.88184C11.4916 8.76342 11.562 8.5859 11.6211 8.4873C11.6763 8.38861 11.7951 8.23048 11.8818 8.13574C11.9725 8.04104 12.1145 7.91461 12.2012 7.85547C12.288 7.79629 12.4649 7.70942 12.5947 7.66211C12.7603 7.60684 12.9344 7.58305 13.167 7.5791ZM36.583 7.59082C36.9572 7.59872 37.0203 7.61108 37.2725 7.7334C37.4301 7.8084 37.6395 7.95087 37.7656 8.07324C37.8917 8.19563 38.0336 8.38533 38.1084 8.53125C38.1753 8.66928 38.2497 8.86228 38.2734 8.96094C38.2971 9.05963 38.3174 9.2457 38.3174 9.37598C38.3173 9.50613 38.2893 9.71073 38.2539 9.8291C38.2184 9.94753 38.1518 10.1259 38.1006 10.2246C38.0532 10.3233 37.9228 10.4969 37.8203 10.6152C37.6784 10.7691 37.5363 10.8718 37.2959 10.9902C36.965 11.152 36.961 11.1523 36.5078 11.1523C36.086 11.1523 36.0303 11.1437 35.8135 11.041C35.6835 10.9779 35.4988 10.8717 35.4082 10.8047C35.3136 10.7336 35.1677 10.591 35.085 10.4805C35.0022 10.3739 34.8872 10.1694 34.8359 10.0273C34.7808 9.88541 34.7258 9.67223 34.7139 9.55371C34.6981 9.43133 34.7058 9.22516 34.7295 9.0791C34.7532 8.93697 34.8247 8.7161 34.8877 8.58594C34.9507 8.45582 35.0686 8.27061 35.1553 8.17188C35.2381 8.07318 35.4042 7.93047 35.5225 7.85547C35.6408 7.7805 35.834 7.68983 35.9521 7.65039C36.1176 7.59519 36.2717 7.58293 36.583 7.59082ZM24.8545 0C24.8742 0 25.4939 0.600434 27.5557 2.66504L24.8545 5.36914L22.1543 2.66504L23.4834 1.33008C24.2127 0.603665 24.8249 0.00613415 24.8545 0Z" fill="white"/>
</svg>
