<svg width="209" height="120" viewBox="0 0 209 120" fill="none" xmlns="http://www.w3.org/2000/svg">
<g clip-path="url(#clip0_679_19285)">
<path d="M14.9172 34.0216C14.9172 34.0433 15.5227 35.7297 16.2794 37.7838C17.0254 39.8378 17.7497 41.827 17.8902 42.2162C18.02 42.6054 18.5281 43.9892 19.0145 45.2973C19.501 46.6054 20.1389 48.3351 20.4308 49.1351C20.7227 49.9351 21.3821 51.7622 21.8902 53.1892C22.3983 54.6162 22.8524 55.8595 22.9064 55.946C22.9713 56.0649 23.2956 56.1297 24.0632 56.2054C24.647 56.2487 26.2686 56.2595 27.6416 56.227C29.9443 56.173 30.1605 56.1406 30.1605 55.9784C30.1605 55.8703 29.8145 54.8324 29.3929 53.6757C28.9713 52.5189 28.3118 50.6919 27.9335 49.6216C27.5443 48.5514 26.8848 46.7568 26.474 45.6216C26.0524 44.4865 25.5443 43.1135 25.3389 42.5622C25.1335 42.0216 24.9713 41.5135 24.9713 41.4595C24.9713 41.3838 28.5172 41.3622 35.4362 41.3838L45.8902 41.4054C46.647 41.773 47.0794 42.0757 47.3497 42.3027C47.62 42.5297 48.0091 43.0378 48.2145 43.4162C48.5605 44.0541 48.5929 44.173 48.5929 45.0811C48.5929 45.8919 48.5497 46.1405 48.3335 46.5946C48.1821 46.8973 47.8362 47.3838 47.5551 47.6757C47.2416 48.0216 46.7983 48.3351 46.3659 48.5406L45.674 48.8541C36.474 48.8108 35.3389 48.8433 35.2848 48.9405C35.2524 49.0162 35.5118 49.8811 35.8686 50.8649C36.2254 51.8487 37.0578 54.1297 37.7281 55.946C38.3875 57.7622 39.3713 60.4324 39.9118 61.8919C40.4416 63.3514 41.1227 65.2216 41.4145 66.0541C41.7173 66.8865 42.1713 68.1514 42.4308 68.8649C42.6902 69.5784 43.4362 71.6216 44.0848 73.4054C44.7335 75.1892 45.3713 76.9838 45.5118 77.4054C45.6416 77.827 45.8145 78.227 45.8794 78.3027C45.9767 78.4108 46.7767 78.4433 49.5875 78.4324C51.9118 78.4324 53.1875 78.3892 53.1875 78.3243C53.1875 78.2595 53.0902 77.9568 52.9605 77.6433C52.8416 77.3405 52.3551 76.0324 51.8902 74.7568C51.4145 73.4811 50.3227 70.4649 49.447 68.0541C48.5713 65.6433 47.5767 62.8973 47.2416 61.946C46.8956 60.9946 46.3227 59.4378 45.9551 58.4865C45.5875 57.5351 45.2848 56.6378 45.2632 56.4973C45.2416 56.2487 45.2848 56.227 46.2145 56.0865C46.7443 56.0108 47.5443 55.8487 47.9767 55.7297C48.3983 55.6108 49.0794 55.3622 49.4794 55.1784C49.8902 54.9946 50.5497 54.627 50.9713 54.346C51.3929 54.0757 52.1064 53.4811 52.5713 53.0378C53.0362 52.5838 53.6308 51.9243 53.8902 51.5676C54.1497 51.2108 54.5497 50.5081 54.7983 50C55.047 49.4919 55.3713 48.5946 55.5227 48C55.7713 47.0703 55.8146 46.6811 55.8254 45.1892C55.8362 43.6216 55.8037 43.3514 55.5443 42.3784C55.3821 41.7838 55.1443 41.027 55.0145 40.7027C54.874 40.3784 54.5821 39.7946 54.3443 39.4054C54.1173 39.0162 53.6632 38.3892 53.3497 38C53.0362 37.6108 52.5389 37.1027 52.247 36.8541C51.9659 36.6162 51.4362 36.2162 51.0794 35.9784C50.7227 35.7405 50.1821 35.4162 49.8902 35.2649C49.5875 35.1135 49.0794 34.8973 48.7551 34.7676C48.4308 34.6487 47.7497 34.4324 47.2416 34.3027L46.3227 34.0541C21.9875 34.0108 14.9172 34.0108 14.9172 34.0216ZM5.18752 41.427L2.8632 41.4595C2.9713 42 3.61995 43.8162 4.37671 45.8378C5.13347 47.8595 6.20374 50.7568 6.75509 52.2703C7.30644 53.7838 8.24698 56.3676 8.84157 58C9.43617 59.6324 10.1281 61.4811 10.3659 62.1081C10.6145 62.7351 10.8091 63.3405 10.8091 63.4595C10.8091 63.6433 10.7118 63.6865 10.0308 63.7622C9.59833 63.8162 8.80914 63.9676 8.2686 64.1081C7.72806 64.2378 6.98211 64.4973 6.59293 64.6703C6.20374 64.8433 5.50103 65.2324 5.02536 65.5351C4.53887 65.8487 3.78211 66.4757 3.29563 66.9946C2.80914 67.4811 2.22536 68.1838 1.97671 68.5406C1.73887 68.8973 1.42536 69.427 1.27401 69.7297C1.12265 70.0216 0.895628 70.5838 0.776709 70.973C0.646979 71.3622 0.495628 71.9135 0.430763 72.2162C0.365898 72.5081 0.25779 73.1568 0.203736 73.6433C0.138871 74.2054 0.149682 74.9946 0.214547 75.7514C0.268601 76.4216 0.441574 77.3946 0.592925 77.9135C0.744276 78.4433 0.992925 79.146 1.14428 79.4811C1.29563 79.827 1.64157 80.4433 1.92265 80.8649C2.20374 81.2757 2.6686 81.9027 2.9713 82.2378C3.2632 82.573 3.84698 83.1351 4.2686 83.4703C4.67941 83.8054 5.33887 84.2487 5.72806 84.4649C6.11725 84.6811 6.83076 84.9946 7.31725 85.1568C7.81455 85.3189 8.69022 85.546 9.2632 85.6433C10.2254 85.8054 11.7389 85.827 25.3497 85.827C33.62 85.8378 40.4524 85.8703 40.5389 85.9135C40.6254 85.9568 40.7767 85.9568 40.8632 85.8919C40.9929 85.8162 41.0037 85.7189 40.9064 85.3838C40.8308 85.1568 40.2578 83.5568 39.62 81.8378C38.9929 80.1189 37.7605 76.7351 36.9064 74.3243C36.0416 71.9135 35.1443 69.4378 34.9064 68.8108C34.6794 68.1838 34.1713 66.8 33.7929 65.7297C33.2091 64.0973 33.0578 63.773 32.8524 63.6973C32.7118 63.6541 31.0794 63.6433 29.2416 63.6757C27.3929 63.7081 25.8686 63.7622 25.8362 63.7946C25.8037 63.8162 25.9227 64.2487 26.0956 64.7351C26.2686 65.2216 26.7443 66.5514 27.1551 67.6757C27.5659 68.8 28.1497 70.3892 28.4524 71.1892C28.7551 71.9892 29.4362 73.7946 29.9659 75.1892C30.5064 76.5838 30.9929 77.8811 31.0578 78.0757C31.1335 78.2703 31.1659 78.4541 31.1335 78.4865C31.101 78.5189 26.4524 78.5514 20.8091 78.5406C12.2254 78.5406 10.4524 78.5081 9.99833 78.3784C9.69563 78.2919 9.25238 78.0757 8.99292 77.9027C8.74428 77.7189 8.35509 77.3405 8.12806 77.0487C7.90103 76.7676 7.65238 76.346 7.5659 76.1081C7.4686 75.8487 7.40374 75.2973 7.40374 74.7568C7.41455 74.0649 7.4686 73.7189 7.63076 73.3514C7.76049 73.0811 8.0632 72.6054 8.31184 72.2919C8.63617 71.8811 8.93887 71.6433 9.47941 71.373L10.2145 71.027C15.8254 70.9946 18.2037 70.9838 19.101 70.9838C20.3443 70.973 20.7551 70.9406 20.7551 70.8324C20.7551 70.7676 20.4091 69.7514 19.9983 68.5946C19.5767 67.4378 18.8524 65.4378 18.3875 64.1622C17.9227 62.8865 17.2416 61.0054 16.874 60C16.5064 58.9838 15.8037 57.0378 15.2956 55.6757C14.7983 54.3027 13.9443 51.9676 13.4037 50.4865C12.8632 48.9946 12.0091 46.6378 11.501 45.2433C10.9929 43.8487 10.4848 42.4324 10.3767 42.1081C10.1929 41.5892 10.1172 41.5027 9.80374 41.427C9.61995 41.3838 9.01455 41.3622 8.48482 41.373C7.94428 41.3838 6.4632 41.4162 5.18752 41.427Z" fill="white"/>
</g>
<path d="M86.513 58H83.413V48.7H68.254V45.6H83.413V36.3H86.513V58ZM66.704 58H63.604V36.3H66.704V58ZM109.15 58H91.356V40.888H109.15V44.019H94.487V54.869H109.15V58ZM107.166 50.932H95.944V47.801H107.166V50.932ZM131.488 52.978C131.488 53.908 131.209 54.7553 130.651 55.52C130.093 56.264 129.338 56.8633 128.388 57.318C127.458 57.7727 126.424 58 125.288 58H111.958V54.9H125.288C126.135 54.9 126.858 54.714 127.458 54.342C128.078 53.97 128.388 53.5153 128.388 52.978V52.203H118.127C116.99 52.203 115.957 51.924 115.027 51.366C114.097 50.808 113.353 50.064 112.795 49.134C112.237 48.1833 111.958 47.1397 111.958 46.003V40.95H115.027V46.003C115.027 46.871 115.326 47.6047 115.926 48.204C116.546 48.8033 117.279 49.103 118.127 49.103H128.388V40.95H131.488V52.978ZM153.746 58H142.741C141.15 58 139.755 57.6177 138.556 56.853C137.358 56.0883 136.428 55.055 135.766 53.753C135.105 52.451 134.774 51.0043 134.774 49.413C134.774 47.8217 135.105 46.3853 135.766 45.104C136.428 43.8227 137.358 42.7997 138.556 42.035C139.755 41.2703 141.15 40.888 142.741 40.888H153.746V44.019H142.741C141.749 44.019 140.892 44.267 140.168 44.763C139.445 45.2383 138.887 45.879 138.494 46.685C138.102 47.491 137.905 48.4003 137.905 49.413C137.905 50.4257 138.102 51.3453 138.494 52.172C138.887 52.9987 139.445 53.66 140.168 54.156C140.892 54.6313 141.749 54.869 142.741 54.869H153.746V58ZM176.7 58H173.6V53.319H161.665V50.157H173.6V44.019H165.54C164.527 44.019 163.607 44.267 162.781 44.763C161.954 45.259 161.293 45.9203 160.797 46.747C160.301 47.553 160.053 48.4623 160.053 49.475V58H156.922V49.475C156.922 48.297 157.139 47.1913 157.573 46.158C158.027 45.104 158.647 44.1843 159.433 43.399C160.239 42.6137 161.158 42.004 162.192 41.57C163.246 41.1153 164.362 40.888 165.54 40.888H176.7V58ZM201.234 58H197.018L192.182 53.381H185.889V50.312H194.476C195.344 50.312 196.078 50.002 196.677 49.382C197.297 48.7413 197.607 47.9973 197.607 47.15C197.607 46.282 197.297 45.5483 196.677 44.949C196.078 44.329 195.344 44.019 194.476 44.019H184.277V58H181.177V40.95H194.476C195.634 40.95 196.677 41.229 197.607 41.787C198.537 42.345 199.281 43.0993 199.839 44.05C200.397 44.98 200.676 46.0133 200.676 47.15C200.676 48.08 200.48 48.9583 200.087 49.785C199.715 50.591 199.188 51.2937 198.506 51.893C197.845 52.4717 197.08 52.885 196.212 53.133L201.234 58ZM88.652 84H84.467L77.957 77.8H68.44V74.731H80.902C81.77 74.731 82.5553 74.5243 83.258 74.111C83.9607 73.677 84.5187 73.1087 84.932 72.406C85.3453 71.6827 85.552 70.8973 85.552 70.05C85.552 69.182 85.3453 68.3967 84.932 67.694C84.5187 66.9913 83.9607 66.4333 83.258 66.02C82.5553 65.6067 81.77 65.4 80.902 65.4H66.704V84H63.604V62.3H80.902C82.328 62.3 83.63 62.6513 84.808 63.354C85.986 64.036 86.916 64.966 87.598 66.144C88.3007 67.322 88.652 68.624 88.652 70.05C88.652 71.3313 88.3627 72.5197 87.784 73.615C87.226 74.7103 86.451 75.6197 85.459 76.343C84.4877 77.0457 83.382 77.5003 82.142 77.707L88.652 84ZM110.028 84H92.234V66.888H110.028V70.019H95.365V80.869H110.028V84ZM108.044 76.932H96.822V73.801H108.044V76.932ZM131.102 84H120.097C118.506 84 117.111 83.6177 115.912 82.853C114.713 82.0883 113.783 81.055 113.122 79.753C112.461 78.451 112.13 77.0043 112.13 75.413C112.13 73.8217 112.461 72.3853 113.122 71.104C113.783 69.8227 114.713 68.7997 115.912 68.035C117.111 67.2703 118.506 66.888 120.097 66.888H131.102V70.019H120.097C119.105 70.019 118.247 70.267 117.524 70.763C116.801 71.2383 116.243 71.879 115.85 72.685C115.457 73.491 115.261 74.4003 115.261 75.413C115.261 76.4257 115.457 77.3453 115.85 78.172C116.243 78.9987 116.801 79.66 117.524 80.156C118.247 80.6313 119.105 80.869 120.097 80.869H131.102V84ZM154.311 75.444C154.311 77.0147 153.981 78.451 153.319 79.753C152.679 81.0343 151.769 82.0677 150.591 82.853C149.413 83.6177 148.039 84 146.468 84H141.074C139.504 84 138.119 83.6177 136.92 82.853C135.742 82.0677 134.823 81.0343 134.161 79.753C133.521 78.451 133.2 77.0147 133.2 75.444C133.2 73.8733 133.521 72.4473 134.161 71.166C134.823 69.8847 135.742 68.8617 136.92 68.097C138.119 67.3323 139.504 66.95 141.074 66.95H146.468C148.039 66.95 149.413 67.3323 150.591 68.097C151.769 68.8617 152.679 69.8847 153.319 71.166C153.981 72.4473 154.311 73.8733 154.311 75.444ZM151.211 75.444C151.211 74.452 151.025 73.5427 150.653 72.716C150.281 71.8893 149.734 71.2383 149.01 70.763C148.308 70.267 147.46 70.019 146.468 70.019H141.074C140.082 70.019 139.225 70.267 138.501 70.763C137.799 71.2383 137.251 71.8893 136.858 72.716C136.486 73.5427 136.3 74.452 136.3 75.444C136.3 76.436 136.486 77.3453 136.858 78.172C137.251 78.9987 137.799 79.66 138.501 80.156C139.225 80.652 140.082 80.9 141.074 80.9H146.468C147.46 80.9 148.308 80.652 149.01 80.156C149.734 79.66 150.281 78.9987 150.653 78.172C151.025 77.3453 151.211 76.436 151.211 75.444ZM177.958 75.413C177.958 77.0043 177.627 78.451 176.966 79.753C176.304 81.055 175.374 82.0883 174.176 82.853C172.977 83.6177 171.582 84 169.991 84H162.365V80.869H169.991C171.003 80.869 171.861 80.6313 172.564 80.156C173.287 79.66 173.845 78.9987 174.238 78.172C174.63 77.3453 174.827 76.4257 174.827 75.413C174.827 74.4003 174.63 73.491 174.238 72.685C173.845 71.879 173.287 71.2383 172.564 70.763C171.861 70.267 171.003 70.019 169.991 70.019H160.908V84H157.746V66.888H169.991C171.582 66.888 172.977 67.2703 174.176 68.035C175.374 68.7997 176.304 69.8227 176.966 71.104C177.627 72.3853 177.958 73.8217 177.958 75.413ZM199.183 84H181.389V66.888H199.183V70.019H184.52V80.869H199.183V84ZM197.199 76.932H185.977V73.801H197.199V76.932Z" fill="white"/>
<defs>
<clipPath id="clip0_679_19285">
<rect width="56" height="52" fill="white" transform="translate(0 34)"/>
</clipPath>
</defs>
</svg>
