<svg width="336" height="68" viewBox="0 0 336 68" fill="none" xmlns="http://www.w3.org/2000/svg">
<g clip-path="url(#clip0_77_370)">
<path d="M55.6025 61.3292H6.6723V15.3316H31.9568V8.66016H0V14.5123V15.3316V61.3292V68.0006H6.6723H55.6025H62.2748V61.3292V37.5696H55.6025V61.3292Z" fill="white"/>
<path d="M70.9383 8.66114H62.276V0H55.6037V8.66114H46.9414V15.3326H55.6037V23.9937H62.276V15.3326H70.9383V8.66114Z" fill="white"/>
<path d="M75.8714 38.4258L85.3804 62.2471L94.8895 38.4258H99.9131V67.6406H96.0557V56.2243L96.4145 43.9092L86.9055 67.6406H83.9451L74.4361 43.9991L74.7949 56.2243V67.6406H70.9375V38.4258H75.8714Z" fill="white"/>
<path d="M129.156 53.9773C129.156 56.8538 128.707 59.3708 127.72 61.4383C126.734 63.5957 125.388 65.2137 123.594 66.2924C121.8 67.3711 119.736 68.0004 117.404 68.0004C115.072 68.0004 113.098 67.461 111.304 66.2924C109.51 65.1238 108.164 63.5957 107.177 61.4383C106.191 59.3708 105.652 56.9437 105.652 54.1571V52.0896C105.652 49.3029 106.101 46.7859 107.088 44.6285C108.074 42.4711 109.42 40.8531 111.214 39.6845C113.008 38.5159 115.072 37.9766 117.314 37.9766C119.647 37.9766 121.71 38.5159 123.504 39.6845C125.298 40.8531 126.644 42.4711 127.631 44.6285C128.618 46.7859 129.066 49.3029 129.066 52.0896V53.9773H129.156ZM125.298 52.0896C125.298 48.5838 124.581 45.9769 123.235 44.0892C121.889 42.2015 119.916 41.3026 117.404 41.3026C114.982 41.3026 113.098 42.2015 111.663 44.0892C110.227 45.9769 109.51 48.4939 109.51 51.8199V53.9773C109.51 57.3033 110.227 60 111.663 61.8877C113.098 63.7755 114.982 64.7643 117.494 64.7643C120.006 64.7643 121.889 63.8654 123.235 62.0675C124.581 60.2697 125.298 57.6628 125.298 54.247V52.0896Z" fill="white"/>
<path d="M134.896 67.6406V38.4258H144.406C147.545 38.4258 149.967 39.055 151.582 40.4034C153.197 41.7518 154.004 43.6395 154.004 46.2464C154.004 47.5947 153.645 48.8532 152.838 49.842C152.031 50.9207 151.044 51.7297 149.698 52.2691C151.313 52.7186 152.479 53.5276 153.466 54.7861C154.363 56.0445 154.812 57.4828 154.812 59.1908C154.812 61.7976 154.004 63.8651 152.3 65.3933C150.595 66.9214 148.173 67.6406 145.123 67.6406H134.896ZM138.754 50.8308H144.585C146.289 50.8308 147.635 50.3814 148.622 49.5723C149.609 48.7633 150.147 47.5947 150.147 46.1565C150.147 44.5384 149.698 43.3698 148.711 42.6507C147.814 41.9316 146.379 41.572 144.406 41.572H138.754V50.8308ZM138.754 53.977V64.4944H145.123C146.917 64.4944 148.353 64.0449 149.339 63.0561C150.416 62.1572 150.864 60.8088 150.864 59.1908C150.864 55.685 148.981 53.8871 145.123 53.8871H138.754V53.977Z" fill="white"/>
<path d="M164.594 67.6406H160.736V38.4258H164.594V67.6406Z" fill="white"/>
<path d="M175.445 64.4944H189.26V67.6406H171.588V38.4258H175.445V64.4944Z" fill="white"/>
<path d="M197.781 67.6406H193.924V38.4258H197.781V67.6406Z" fill="white"/>
<path d="M220.927 54.6962H208.727V67.6406H204.869V38.4258H222.9V41.572H208.727V51.55H220.927V54.6962Z" fill="white"/>
<path d="M240.213 59.9998H228.013L225.232 67.6406H221.285L232.409 38.4258H235.728L246.852 67.6406H242.905L240.213 59.9998ZM229.09 56.8536H238.958L234.024 43.19L229.09 56.8536Z" fill="white"/>
<path d="M261.564 55.7749H254.746V67.5507H250.889V38.4258H260.577C263.896 38.4258 266.408 39.1449 268.113 40.6731C269.907 42.2012 270.804 44.3586 270.804 47.2352C270.804 49.033 270.355 50.651 269.368 51.9994C268.382 53.3478 267.036 54.3366 265.242 55.0557L272.06 67.4608V67.7305H267.933L261.564 55.7749ZM254.656 52.6287H260.577C262.461 52.6287 263.986 52.0893 265.152 51.1005C266.318 50.1117 266.857 48.7633 266.857 47.1453C266.857 45.3474 266.318 43.9092 265.242 43.0103C264.165 42.0214 262.64 41.572 260.577 41.572H254.656V52.6287Z" fill="white"/>
<path d="M281.033 38.4258L290.542 62.2471L300.051 38.4258H305.075V67.6406H301.218V56.2243L301.576 43.9092L291.978 67.5507H289.017L279.508 43.9991L279.867 56.2243V67.6406H276.01V38.4258H281.033Z" fill="white"/>
<path d="M328.311 59.9998H316.111L313.33 67.6406H309.383L320.507 38.4258H323.826L335.039 67.6406H331.092L328.311 59.9998ZM317.277 56.8536H327.145L322.211 43.19L317.277 56.8536Z" fill="white"/>
</g>
<defs>
<clipPath id="clip0_77_370">
<rect width="336" height="68" fill="white"/>
</clipPath>
</defs>
</svg>
