<svg width="226" height="120" viewBox="0 0 226 120" fill="none" xmlns="http://www.w3.org/2000/svg">
<path d="M37.5066 78.4342H4.5008V47.4065H21.5564V42.9062H0V46.8538V47.4065V78.4342V82.9344H4.5008H37.5066H42.0074V78.4342V62.4071H37.5066V78.4342Z" fill="white"/>
<path d="M47.8511 42.9068H42.008V37.0645H37.5072V42.9068H31.6641V47.407H37.5072V53.2494H42.008V47.407H47.8511V42.9068Z" fill="white"/>
<path d="M51.1797 62.9844L57.594 79.053L64.0084 62.9844H67.397V82.6912H64.795V74.9904L65.0371 66.6832L58.6228 82.6912H56.6258L50.2115 66.7438L50.4536 74.9904V82.6912H47.8516V62.9844H51.1797Z" fill="white"/>
<path d="M87.1238 73.4749C87.1238 75.4153 86.8212 77.1131 86.1556 78.5077C85.4899 79.963 84.5822 81.0545 83.372 81.7821C82.1617 82.5097 80.77 82.9342 79.1966 82.9342C77.6233 82.9342 76.292 82.5704 75.0818 81.7821C73.8716 80.9938 72.9639 79.963 72.2982 78.5077C71.6326 77.1131 71.2695 75.4759 71.2695 73.5962V72.2016C71.2695 70.3218 71.5721 68.624 72.2377 67.1687C72.9034 65.7135 73.811 64.622 75.0213 63.8337C76.2315 63.0455 77.6233 62.6816 79.1361 62.6816C80.7095 62.6816 82.1012 63.0455 83.3115 63.8337C84.5217 64.622 85.4294 65.7135 86.095 67.1687C86.7607 68.624 87.0632 70.3218 87.0632 72.2016V73.4749H87.1238ZM84.5217 72.2016C84.5217 69.8367 84.0376 68.0783 83.1299 66.8049C82.2223 65.5316 80.891 64.9252 79.1966 64.9252C77.5628 64.9252 76.2921 65.5316 75.3239 66.8049C74.3557 68.0783 73.8716 69.7761 73.8716 72.0196V73.4749C73.8716 75.7185 74.3557 77.5376 75.3239 78.8109C76.2921 80.0843 77.5628 80.7513 79.2572 80.7513C80.9515 80.7513 82.2223 80.1449 83.1299 78.9322C84.0376 77.7195 84.5217 75.961 84.5217 73.6568V72.2016Z" fill="white"/>
<path d="M90.9961 82.6912V62.9844H97.4104C99.5283 62.9844 101.162 63.4088 102.251 64.3184C103.341 65.2279 103.885 66.5013 103.885 68.2597C103.885 69.1693 103.643 70.0182 103.099 70.6852C102.554 71.4128 101.888 71.9586 100.981 72.3224C102.07 72.6256 102.857 73.1713 103.522 74.0202C104.127 74.8691 104.43 75.8393 104.43 76.9914C104.43 78.7498 103.885 80.1445 102.735 81.1753C101.586 82.2061 99.9519 82.6912 97.8945 82.6912H90.9961ZM93.5981 71.3522H97.5314C98.6812 71.3522 99.5888 71.049 100.254 70.5033C100.92 69.9576 101.283 69.1693 101.283 68.1991C101.283 67.1076 100.981 66.3194 100.315 65.8343C99.7099 65.3492 98.7417 65.1066 97.4104 65.1066H93.5981V71.3522ZM93.5981 73.4745V80.5689H97.8945C99.1047 80.5689 100.073 80.2657 100.739 79.5987C101.465 78.9924 101.767 78.0828 101.767 76.9914C101.767 74.6266 100.497 73.4138 97.8945 73.4138H93.5981V73.4745Z" fill="white"/>
<path d="M111.028 82.6912H108.426V62.9844H111.028V82.6912Z" fill="white"/>
<path d="M118.348 80.5689H127.667V82.6912H115.746V62.9844H118.348V80.5689Z" fill="white"/>
<path d="M133.415 82.6912H130.812V62.9844H133.415V82.6912Z" fill="white"/>
<path d="M149.027 73.9596H140.797V82.6912H138.195V62.9844H150.358V65.1066H140.797V71.8373H149.027V73.9596Z" fill="white"/>
<path d="M162.038 77.5371H153.808L151.932 82.6912H149.27L156.773 62.9844H159.012L166.516 82.6912H163.853L162.038 77.5371ZM154.534 75.4148H161.19L157.862 66.1981L154.534 75.4148Z" fill="white"/>
<path d="M176.439 74.6872H171.84V82.6306H169.238V62.9844H175.774C178.013 62.9844 179.707 63.4695 180.857 64.5003C182.067 65.5311 182.672 66.9864 182.672 68.9267C182.672 70.1395 182.369 71.2309 181.704 72.1405C181.038 73.05 180.13 73.717 178.92 74.2021L183.519 82.5699V82.7518H180.736L176.439 74.6872ZM171.78 72.5649H175.774C177.044 72.5649 178.073 72.2011 178.86 71.5341C179.646 70.8671 180.009 69.9576 180.009 68.8661C180.009 67.6534 179.646 66.6832 178.92 66.0768C178.194 65.4098 177.165 65.1066 175.774 65.1066H171.78V72.5649Z" fill="white"/>
<path d="M189.572 62.9844L195.987 79.053L202.401 62.9844H205.79V82.6912H203.188V74.9904L203.43 66.6832L196.955 82.6306H194.958L188.544 66.7438L188.786 74.9904V82.6912H186.184V62.9844H189.572Z" fill="white"/>
<path d="M221.463 77.5371H213.234L211.358 82.6912H208.695L216.199 62.9844H218.438L226.002 82.6912H223.339L221.463 77.5371ZM214.02 75.4148H220.677L217.349 66.1981L214.02 75.4148Z" fill="white"/>
</svg>
